ISO-10303-21;
HEADER;
/*Generated by software containing ST-Developer
 * from STEP Tools, Inc. (www.steptools.com) 
 */
/*OPTION: using custom renumber hook */
/*description */
/*implementation_level */
FILE_DESCRIPTION(('STEP AP242 Edition 2','STEP AP242 Edition 2''CAx-IF Rec.Pracs.---Representation and Presentation of Product Manufa
cturing Information (PMI)---4.0---2014-10-13','STEP AP242 Edition 2''CAx-IF Rec.Pracs.---Representation and Presentation of Product Manufa
cturing Information (PMI)---4.0---2014-10-13''CAx-IF Rec.Pracs.---3D Tessellated Geometry---0.4---2014-09-14','STEP AP242 Edition 2''CAx-IF Rec.Pracs.---Representation and Presentation of Product Manufa
cturing Information (PMI)---4.0---2014-10-13''CAx-IF Rec.Pracs.---3D Tessellated Geometry---0.4---2014-09-14''2;1','STEP AP242 Edition 2''CAx-IF Rec.Pracs.---Representation and Presentation of Product Manufa
cturing Information (PMI)---4.0---2014-10-13''CAx-IF Rec.Pracs.---3D Tessellated Geometry---0.4---2014-09-14''2;1''CAx-IF Rec.Pracs.---User Defined Attributes---1.5---2016-08-15'),'2;1');
/*name */
/*time_stamp */
/*author */
/*organization */
/*preprocessor_version */
/*originating_system */
/*authorisation */
FILE_NAME('/vol/tmp/translate-3814294147051821393/Part Studio 1.step','2026-03-15T05:28:56',(''),(''),'ST-DEVELOPER v20','ONSHAPE BY PTC INC, 1.212','  ');
FILE_SCHEMA(('AP242_MANAGED_MODEL_BASED_3D_ENGINEERING_MIM_LF { 1 0 10303 442 3 1 4 }'));
ENDSEC;
DATA;
#10=SHAPE_REPRESENTATION_RELATIONSHIP('','',#443,#11);
#11=ADVANCED_BREP_SHAPE_REPRESENTATION('',(#441),#721);
#12=CYLINDRICAL_SURFACE('',#470,0.00125);
#13=CYLINDRICAL_SURFACE('',#471,0.00125);
#14=CYLINDRICAL_SURFACE('',#472,0.00125);
#15=CYLINDRICAL_SURFACE('',#474,0.00125);
#16=CYLINDRICAL_SURFACE('',#475,0.003);
#17=CYLINDRICAL_SURFACE('',#476,0.003);
#18=CYLINDRICAL_SURFACE('',#477,0.003);
#19=CYLINDRICAL_SURFACE('',#478,0.003);
#20=CIRCLE('',#446,0.003);
#21=CIRCLE('',#447,0.003);
#22=CIRCLE('',#448,0.003);
#23=CIRCLE('',#449,0.003);
#24=CIRCLE('',#450,0.00125);
#25=CIRCLE('',#451,0.00125);
#26=CIRCLE('',#452,0.00125);
#27=CIRCLE('',#453,0.00125);
#28=CIRCLE('',#455,0.00125);
#29=CIRCLE('',#456,0.00125);
#30=CIRCLE('',#457,0.00125);
#31=CIRCLE('',#458,0.00125);
#32=CIRCLE('',#459,0.003);
#33=CIRCLE('',#460,0.003);
#34=CIRCLE('',#461,0.003);
#35=CIRCLE('',#462,0.003);
#36=ORIENTED_EDGE('',*,*,#148,.F.);
#37=ORIENTED_EDGE('',*,*,#149,.T.);
#38=ORIENTED_EDGE('',*,*,#150,.F.);
#39=ORIENTED_EDGE('',*,*,#151,.T.);
#40=ORIENTED_EDGE('',*,*,#152,.T.);
#41=ORIENTED_EDGE('',*,*,#153,.F.);
#42=ORIENTED_EDGE('',*,*,#154,.F.);
#43=ORIENTED_EDGE('',*,*,#155,.T.);
#44=ORIENTED_EDGE('',*,*,#156,.T.);
#45=ORIENTED_EDGE('',*,*,#157,.T.);
#46=ORIENTED_EDGE('',*,*,#158,.T.);
#47=ORIENTED_EDGE('',*,*,#159,.T.);
#48=ORIENTED_EDGE('',*,*,#160,.F.);
#49=ORIENTED_EDGE('',*,*,#161,.F.);
#50=ORIENTED_EDGE('',*,*,#162,.F.);
#51=ORIENTED_EDGE('',*,*,#163,.F.);
#52=ORIENTED_EDGE('',*,*,#164,.F.);
#53=ORIENTED_EDGE('',*,*,#165,.T.);
#54=ORIENTED_EDGE('',*,*,#166,.T.);
#55=ORIENTED_EDGE('',*,*,#167,.F.);
#56=ORIENTED_EDGE('',*,*,#168,.T.);
#57=ORIENTED_EDGE('',*,*,#169,.T.);
#58=ORIENTED_EDGE('',*,*,#170,.T.);
#59=ORIENTED_EDGE('',*,*,#171,.T.);
#60=ORIENTED_EDGE('',*,*,#172,.T.);
#61=ORIENTED_EDGE('',*,*,#173,.T.);
#62=ORIENTED_EDGE('',*,*,#174,.T.);
#63=ORIENTED_EDGE('',*,*,#175,.T.);
#64=ORIENTED_EDGE('',*,*,#176,.F.);
#65=ORIENTED_EDGE('',*,*,#177,.T.);
#66=ORIENTED_EDGE('',*,*,#178,.F.);
#67=ORIENTED_EDGE('',*,*,#179,.T.);
#68=ORIENTED_EDGE('',*,*,#180,.T.);
#69=ORIENTED_EDGE('',*,*,#181,.T.);
#70=ORIENTED_EDGE('',*,*,#182,.F.);
#71=ORIENTED_EDGE('',*,*,#183,.F.);
#72=ORIENTED_EDGE('',*,*,#184,.F.);
#73=ORIENTED_EDGE('',*,*,#185,.T.);
#74=ORIENTED_EDGE('',*,*,#186,.T.);
#75=ORIENTED_EDGE('',*,*,#187,.F.);
#76=ORIENTED_EDGE('',*,*,#150,.T.);
#77=ORIENTED_EDGE('',*,*,#188,.T.);
#78=ORIENTED_EDGE('',*,*,#172,.F.);
#79=ORIENTED_EDGE('',*,*,#189,.F.);
#80=ORIENTED_EDGE('',*,*,#183,.T.);
#81=ORIENTED_EDGE('',*,*,#190,.F.);
#82=ORIENTED_EDGE('',*,*,#151,.F.);
#83=ORIENTED_EDGE('',*,*,#189,.T.);
#84=ORIENTED_EDGE('',*,*,#182,.T.);
#85=ORIENTED_EDGE('',*,*,#191,.F.);
#86=ORIENTED_EDGE('',*,*,#152,.F.);
#87=ORIENTED_EDGE('',*,*,#190,.T.);
#88=ORIENTED_EDGE('',*,*,#181,.F.);
#89=ORIENTED_EDGE('',*,*,#192,.F.);
#90=ORIENTED_EDGE('',*,*,#153,.T.);
#91=ORIENTED_EDGE('',*,*,#191,.T.);
#92=ORIENTED_EDGE('',*,*,#180,.F.);
#93=ORIENTED_EDGE('',*,*,#193,.T.);
#94=ORIENTED_EDGE('',*,*,#154,.T.);
#95=ORIENTED_EDGE('',*,*,#192,.T.);
#96=ORIENTED_EDGE('',*,*,#156,.F.);
#97=ORIENTED_EDGE('',*,*,#194,.T.);
#98=ORIENTED_EDGE('',*,*,#178,.T.);
#99=ORIENTED_EDGE('',*,*,#195,.T.);
#100=ORIENTED_EDGE('',*,*,#158,.F.);
#101=ORIENTED_EDGE('',*,*,#196,.T.);
#102=ORIENTED_EDGE('',*,*,#176,.T.);
#103=ORIENTED_EDGE('',*,*,#197,.T.);
#104=ORIENTED_EDGE('',*,*,#162,.T.);
#105=ORIENTED_EDGE('',*,*,#169,.F.);
#106=ORIENTED_EDGE('',*,*,#161,.T.);
#107=ORIENTED_EDGE('',*,*,#170,.F.);
#108=ORIENTED_EDGE('',*,*,#160,.T.);
#109=ORIENTED_EDGE('',*,*,#171,.F.);
#110=ORIENTED_EDGE('',*,*,#174,.F.);
#111=ORIENTED_EDGE('',*,*,#198,.T.);
#112=ORIENTED_EDGE('',*,*,#148,.T.);
#113=ORIENTED_EDGE('',*,*,#199,.T.);
#114=ORIENTED_EDGE('',*,*,#163,.T.);
#115=ORIENTED_EDGE('',*,*,#168,.F.);
#116=ORIENTED_EDGE('',*,*,#149,.F.);
#117=ORIENTED_EDGE('',*,*,#198,.F.);
#118=ORIENTED_EDGE('',*,*,#173,.F.);
#119=ORIENTED_EDGE('',*,*,#188,.F.);
#120=ORIENTED_EDGE('',*,*,#155,.F.);
#121=ORIENTED_EDGE('',*,*,#193,.F.);
#122=ORIENTED_EDGE('',*,*,#179,.F.);
#123=ORIENTED_EDGE('',*,*,#194,.F.);
#124=ORIENTED_EDGE('',*,*,#157,.F.);
#125=ORIENTED_EDGE('',*,*,#195,.F.);
#126=ORIENTED_EDGE('',*,*,#177,.F.);
#127=ORIENTED_EDGE('',*,*,#196,.F.);
#128=ORIENTED_EDGE('',*,*,#159,.F.);
#129=ORIENTED_EDGE('',*,*,#197,.F.);
#130=ORIENTED_EDGE('',*,*,#175,.F.);
#131=ORIENTED_EDGE('',*,*,#199,.F.);
#132=ORIENTED_EDGE('',*,*,#165,.F.);
#133=ORIENTED_EDGE('',*,*,#200,.F.);
#134=ORIENTED_EDGE('',*,*,#184,.T.);
#135=ORIENTED_EDGE('',*,*,#201,.T.);
#136=ORIENTED_EDGE('',*,*,#164,.T.);
#137=ORIENTED_EDGE('',*,*,#202,.F.);
#138=ORIENTED_EDGE('',*,*,#185,.F.);
#139=ORIENTED_EDGE('',*,*,#200,.T.);
#140=ORIENTED_EDGE('',*,*,#167,.T.);
#141=ORIENTED_EDGE('',*,*,#203,.F.);
#142=ORIENTED_EDGE('',*,*,#186,.F.);
#143=ORIENTED_EDGE('',*,*,#202,.T.);
#144=ORIENTED_EDGE('',*,*,#166,.F.);
#145=ORIENTED_EDGE('',*,*,#201,.F.);
#146=ORIENTED_EDGE('',*,*,#187,.T.);
#147=ORIENTED_EDGE('',*,*,#203,.T.);
#148=EDGE_CURVE('',#204,#205,#244,.T.);
#149=EDGE_CURVE('',#204,#206,#20,.T.);
#150=EDGE_CURVE('',#207,#206,#245,.T.);
#151=EDGE_CURVE('',#207,#208,#246,.T.);
#152=EDGE_CURVE('',#208,#209,#247,.T.);
#153=EDGE_CURVE('',#210,#209,#248,.T.);
#154=EDGE_CURVE('',#211,#210,#249,.T.);
#155=EDGE_CURVE('',#211,#212,#21,.T.);
#156=EDGE_CURVE('',#212,#213,#250,.T.);
#157=EDGE_CURVE('',#213,#214,#22,.T.);
#158=EDGE_CURVE('',#214,#215,#251,.T.);
#159=EDGE_CURVE('',#215,#205,#23,.T.);
#160=EDGE_CURVE('',#216,#216,#24,.T.);
#161=EDGE_CURVE('',#217,#217,#25,.T.);
#162=EDGE_CURVE('',#218,#218,#26,.T.);
#163=EDGE_CURVE('',#219,#219,#27,.T.);
#164=EDGE_CURVE('',#220,#221,#252,.T.);
#165=EDGE_CURVE('',#220,#222,#253,.T.);
#166=EDGE_CURVE('',#222,#223,#254,.T.);
#167=EDGE_CURVE('',#221,#223,#255,.T.);
#168=EDGE_CURVE('',#224,#224,#28,.T.);
#169=EDGE_CURVE('',#225,#225,#29,.T.);
#170=EDGE_CURVE('',#226,#226,#30,.T.);
#171=EDGE_CURVE('',#227,#227,#31,.T.);
#172=EDGE_CURVE('',#228,#229,#256,.T.);
#173=EDGE_CURVE('',#229,#230,#32,.F.);
#174=EDGE_CURVE('',#230,#231,#257,.T.);
#175=EDGE_CURVE('',#231,#232,#33,.F.);
#176=EDGE_CURVE('',#233,#232,#258,.T.);
#177=EDGE_CURVE('',#233,#234,#34,.F.);
#178=EDGE_CURVE('',#235,#234,#259,.T.);
#179=EDGE_CURVE('',#235,#236,#35,.F.);
#180=EDGE_CURVE('',#236,#237,#260,.T.);
#181=EDGE_CURVE('',#237,#238,#261,.T.);
#182=EDGE_CURVE('',#239,#238,#262,.T.);
#183=EDGE_CURVE('',#228,#239,#263,.T.);
#184=EDGE_CURVE('',#240,#241,#264,.T.);
#185=EDGE_CURVE('',#240,#242,#265,.T.);
#186=EDGE_CURVE('',#242,#243,#266,.T.);
#187=EDGE_CURVE('',#241,#243,#267,.T.);
#188=EDGE_CURVE('',#206,#229,#268,.T.);
#189=EDGE_CURVE('',#207,#228,#269,.T.);
#190=EDGE_CURVE('',#208,#239,#270,.T.);
#191=EDGE_CURVE('',#209,#238,#271,.T.);
#192=EDGE_CURVE('',#210,#237,#272,.T.);
#193=EDGE_CURVE('',#236,#211,#273,.F.);
#194=EDGE_CURVE('',#212,#235,#274,.T.);
#195=EDGE_CURVE('',#234,#213,#275,.F.);
#196=EDGE_CURVE('',#214,#233,#276,.T.);
#197=EDGE_CURVE('',#232,#215,#277,.F.);
#198=EDGE_CURVE('',#230,#204,#278,.F.);
#199=EDGE_CURVE('',#205,#231,#279,.T.);
#200=EDGE_CURVE('',#240,#220,#280,.T.);
#201=EDGE_CURVE('',#241,#222,#281,.T.);
#202=EDGE_CURVE('',#242,#221,#282,.T.);
#203=EDGE_CURVE('',#243,#223,#283,.T.);
#204=VERTEX_POINT('',#604);
#205=VERTEX_POINT('',#605);
#206=VERTEX_POINT('',#607);
#207=VERTEX_POINT('',#609);
#208=VERTEX_POINT('',#611);
#209=VERTEX_POINT('',#613);
#210=VERTEX_POINT('',#615);
#211=VERTEX_POINT('',#617);
#212=VERTEX_POINT('',#619);
#213=VERTEX_POINT('',#621);
#214=VERTEX_POINT('',#623);
#215=VERTEX_POINT('',#625);
#216=VERTEX_POINT('',#628);
#217=VERTEX_POINT('',#630);
#218=VERTEX_POINT('',#632);
#219=VERTEX_POINT('',#634);
#220=VERTEX_POINT('',#636);
#221=VERTEX_POINT('',#637);
#222=VERTEX_POINT('',#639);
#223=VERTEX_POINT('',#641);
#224=VERTEX_POINT('',#645);
#225=VERTEX_POINT('',#647);
#226=VERTEX_POINT('',#649);
#227=VERTEX_POINT('',#651);
#228=VERTEX_POINT('',#653);
#229=VERTEX_POINT('',#654);
#230=VERTEX_POINT('',#656);
#231=VERTEX_POINT('',#658);
#232=VERTEX_POINT('',#660);
#233=VERTEX_POINT('',#662);
#234=VERTEX_POINT('',#664);
#235=VERTEX_POINT('',#666);
#236=VERTEX_POINT('',#668);
#237=VERTEX_POINT('',#670);
#238=VERTEX_POINT('',#672);
#239=VERTEX_POINT('',#674);
#240=VERTEX_POINT('',#677);
#241=VERTEX_POINT('',#678);
#242=VERTEX_POINT('',#680);
#243=VERTEX_POINT('',#682);
#244=LINE('',#603,#284);
#245=LINE('',#608,#285);
#246=LINE('',#610,#286);
#247=LINE('',#612,#287);
#248=LINE('',#614,#288);
#249=LINE('',#616,#289);
#250=LINE('',#620,#290);
#251=LINE('',#624,#291);
#252=LINE('',#635,#292);
#253=LINE('',#638,#293);
#254=LINE('',#640,#294);
#255=LINE('',#642,#295);
#256=LINE('',#652,#296);
#257=LINE('',#657,#297);
#258=LINE('',#661,#298);
#259=LINE('',#665,#299);
#260=LINE('',#669,#300);
#261=LINE('',#671,#301);
#262=LINE('',#673,#302);
#263=LINE('',#675,#303);
#264=LINE('',#676,#304);
#265=LINE('',#679,#305);
#266=LINE('',#681,#306);
#267=LINE('',#683,#307);
#268=LINE('',#685,#308);
#269=LINE('',#686,#309);
#270=LINE('',#688,#310);
#271=LINE('',#690,#311);
#272=LINE('',#692,#312);
#273=LINE('',#694,#313);
#274=LINE('',#696,#314);
#275=LINE('',#697,#315);
#276=LINE('',#699,#316);
#277=LINE('',#700,#317);
#278=LINE('',#705,#318);
#279=LINE('',#706,#319);
#280=LINE('',#713,#320);
#281=LINE('',#714,#321);
#282=LINE('',#716,#322);
#283=LINE('',#718,#323);
#284=VECTOR('',#487,1.);
#285=VECTOR('',#490,1.);
#286=VECTOR('',#491,1.);
#287=VECTOR('',#492,1.);
#288=VECTOR('',#493,1.);
#289=VECTOR('',#494,1.);
#290=VECTOR('',#497,1.);
#291=VECTOR('',#500,1.);
#292=VECTOR('',#511,1.);
#293=VECTOR('',#512,1.);
#294=VECTOR('',#513,1.);
#295=VECTOR('',#514,1.);
#296=VECTOR('',#525,1.);
#297=VECTOR('',#528,1.);
#298=VECTOR('',#531,1.);
#299=VECTOR('',#534,1.);
#300=VECTOR('',#537,1.);
#301=VECTOR('',#538,1.);
#302=VECTOR('',#539,1.);
#303=VECTOR('',#540,1.);
#304=VECTOR('',#541,1.);
#305=VECTOR('',#542,1.);
#306=VECTOR('',#543,1.);
#307=VECTOR('',#544,1.);
#308=VECTOR('',#547,1.);
#309=VECTOR('',#548,1.);
#310=VECTOR('',#551,1.);
#311=VECTOR('',#554,1.);
#312=VECTOR('',#557,1.);
#313=VECTOR('',#560,1.);
#314=VECTOR('',#563,1.);
#315=VECTOR('',#564,1.);
#316=VECTOR('',#567,1.);
#317=VECTOR('',#568,1.);
#318=VECTOR('',#577,1.);
#319=VECTOR('',#578,1.);
#320=VECTOR('',#591,1.);
#321=VECTOR('',#592,1.);
#322=VECTOR('',#595,1.);
#323=VECTOR('',#598,1.);
#324=EDGE_LOOP('',(#36,#37,#38,#39,#40,#41,#42,#43,#44,#45,#46,#47));
#325=EDGE_LOOP('',(#48));
#326=EDGE_LOOP('',(#49));
#327=EDGE_LOOP('',(#50));
#328=EDGE_LOOP('',(#51));
#329=EDGE_LOOP('',(#52,#53,#54,#55));
#330=EDGE_LOOP('',(#56));
#331=EDGE_LOOP('',(#57));
#332=EDGE_LOOP('',(#58));
#333=EDGE_LOOP('',(#59));
#334=EDGE_LOOP('',(#60,#61,#62,#63,#64,#65,#66,#67,#68,#69,#70,#71));
#335=EDGE_LOOP('',(#72,#73,#74,#75));
#336=EDGE_LOOP('',(#76,#77,#78,#79));
#337=EDGE_LOOP('',(#80,#81,#82,#83));
#338=EDGE_LOOP('',(#84,#85,#86,#87));
#339=EDGE_LOOP('',(#88,#89,#90,#91));
#340=EDGE_LOOP('',(#92,#93,#94,#95));
#341=EDGE_LOOP('',(#96,#97,#98,#99));
#342=EDGE_LOOP('',(#100,#101,#102,#103));
#343=EDGE_LOOP('',(#104));
#344=EDGE_LOOP('',(#105));
#345=EDGE_LOOP('',(#106));
#346=EDGE_LOOP('',(#107));
#347=EDGE_LOOP('',(#108));
#348=EDGE_LOOP('',(#109));
#349=EDGE_LOOP('',(#110,#111,#112,#113));
#350=EDGE_LOOP('',(#114));
#351=EDGE_LOOP('',(#115));
#352=EDGE_LOOP('',(#116,#117,#118,#119));
#353=EDGE_LOOP('',(#120,#121,#122,#123));
#354=EDGE_LOOP('',(#124,#125,#126,#127));
#355=EDGE_LOOP('',(#128,#129,#130,#131));
#356=EDGE_LOOP('',(#132,#133,#134,#135));
#357=EDGE_LOOP('',(#136,#137,#138,#139));
#358=EDGE_LOOP('',(#140,#141,#142,#143));
#359=EDGE_LOOP('',(#144,#145,#146,#147));
#360=FACE_BOUND('',#324,.T.);
#361=FACE_BOUND('',#325,.T.);
#362=FACE_BOUND('',#326,.T.);
#363=FACE_BOUND('',#327,.T.);
#364=FACE_BOUND('',#328,.T.);
#365=FACE_BOUND('',#329,.T.);
#366=FACE_BOUND('',#330,.T.);
#367=FACE_BOUND('',#331,.T.);
#368=FACE_BOUND('',#332,.T.);
#369=FACE_BOUND('',#333,.T.);
#370=FACE_BOUND('',#334,.T.);
#371=FACE_BOUND('',#335,.T.);
#372=FACE_BOUND('',#336,.T.);
#373=FACE_BOUND('',#337,.T.);
#374=FACE_BOUND('',#338,.T.);
#375=FACE_BOUND('',#339,.T.);
#376=FACE_BOUND('',#340,.T.);
#377=FACE_BOUND('',#341,.T.);
#378=FACE_BOUND('',#342,.T.);
#379=FACE_BOUND('',#343,.T.);
#380=FACE_BOUND('',#344,.T.);
#381=FACE_BOUND('',#345,.T.);
#382=FACE_BOUND('',#346,.T.);
#383=FACE_BOUND('',#347,.T.);
#384=FACE_BOUND('',#348,.T.);
#385=FACE_BOUND('',#349,.T.);
#386=FACE_BOUND('',#350,.T.);
#387=FACE_BOUND('',#351,.T.);
#388=FACE_BOUND('',#352,.T.);
#389=FACE_BOUND('',#353,.T.);
#390=FACE_BOUND('',#354,.T.);
#391=FACE_BOUND('',#355,.T.);
#392=FACE_BOUND('',#356,.T.);
#393=FACE_BOUND('',#357,.T.);
#394=FACE_BOUND('',#358,.T.);
#395=FACE_BOUND('',#359,.T.);
#396=PLANE('',#445);
#397=PLANE('',#454);
#398=PLANE('',#463);
#399=PLANE('',#464);
#400=PLANE('',#465);
#401=PLANE('',#466);
#402=PLANE('',#467);
#403=PLANE('',#468);
#404=PLANE('',#469);
#405=PLANE('',#473);
#406=PLANE('',#479);
#407=PLANE('',#480);
#408=PLANE('',#481);
#409=PLANE('',#482);
#410=ADVANCED_FACE('',(#360,#361,#362,#363,#364,#365),#396,.T.);
#411=ADVANCED_FACE('',(#366,#367,#368,#369,#370,#371),#397,.F.);
#412=ADVANCED_FACE('',(#372),#398,.T.);
#413=ADVANCED_FACE('',(#373),#399,.F.);
#414=ADVANCED_FACE('',(#374),#400,.F.);
#415=ADVANCED_FACE('',(#375),#401,.T.);
#416=ADVANCED_FACE('',(#376),#402,.T.);
#417=ADVANCED_FACE('',(#377),#403,.F.);
#418=ADVANCED_FACE('',(#378),#404,.F.);
#419=ADVANCED_FACE('',(#379,#380),#12,.F.);
#420=ADVANCED_FACE('',(#381,#382),#13,.F.);
#421=ADVANCED_FACE('',(#383,#384),#14,.F.);
#422=ADVANCED_FACE('',(#385),#405,.T.);
#423=ADVANCED_FACE('',(#386,#387),#15,.F.);
#424=ADVANCED_FACE('',(#388),#16,.T.);
#425=ADVANCED_FACE('',(#389),#17,.T.);
#426=ADVANCED_FACE('',(#390),#18,.T.);
#427=ADVANCED_FACE('',(#391),#19,.T.);
#428=ADVANCED_FACE('',(#392),#406,.T.);
#429=ADVANCED_FACE('',(#393),#407,.F.);
#430=ADVANCED_FACE('',(#394),#408,.F.);
#431=ADVANCED_FACE('',(#395),#409,.T.);
#432=CLOSED_SHELL('',(#410,#411,#412,#413,#414,#415,#416,#417,#418,#419,#420,#421,#422,#423,#424,#425,#426,#427,#428,#429,#430,#431));
#433=STYLED_ITEM('',(#434),#441);
#434=PRESENTATION_STYLE_ASSIGNMENT((#435));
#435=SURFACE_STYLE_USAGE(.BOTH.,#436);
#436=SURFACE_SIDE_STYLE('',(#437));
#437=SURFACE_STYLE_FILL_AREA(#438);
#438=FILL_AREA_STYLE('',(#439));
#439=FILL_AREA_STYLE_COLOUR('',#440);
#440=COLOUR_RGB('',0.615686274509804,0.811764705882353,0.929411764705882);
#441=MANIFOLD_SOLID_BREP('Part 1',#432);
#442=SHAPE_DEFINITION_REPRESENTATION(#726,#443);
#443=SHAPE_REPRESENTATION('Part 1',(#444),#721);
#444=AXIS2_PLACEMENT_3D('',#601,#483,#484);
#445=AXIS2_PLACEMENT_3D('',#602,#485,#486);
#446=AXIS2_PLACEMENT_3D('',#606,#488,#489);
#447=AXIS2_PLACEMENT_3D('',#618,#495,#496);
#448=AXIS2_PLACEMENT_3D('',#622,#498,#499);
#449=AXIS2_PLACEMENT_3D('',#626,#501,#502);
#450=AXIS2_PLACEMENT_3D('',#627,#503,#504);
#451=AXIS2_PLACEMENT_3D('',#629,#505,#506);
#452=AXIS2_PLACEMENT_3D('',#631,#507,#508);
#453=AXIS2_PLACEMENT_3D('',#633,#509,#510);
#454=AXIS2_PLACEMENT_3D('',#643,#515,#516);
#455=AXIS2_PLACEMENT_3D('',#644,#517,#518);
#456=AXIS2_PLACEMENT_3D('',#646,#519,#520);
#457=AXIS2_PLACEMENT_3D('',#648,#521,#522);
#458=AXIS2_PLACEMENT_3D('',#650,#523,#524);
#459=AXIS2_PLACEMENT_3D('',#655,#526,#527);
#460=AXIS2_PLACEMENT_3D('',#659,#529,#530);
#461=AXIS2_PLACEMENT_3D('',#663,#532,#533);
#462=AXIS2_PLACEMENT_3D('',#667,#535,#536);
#463=AXIS2_PLACEMENT_3D('',#684,#545,#546);
#464=AXIS2_PLACEMENT_3D('',#687,#549,#550);
#465=AXIS2_PLACEMENT_3D('',#689,#552,#553);
#466=AXIS2_PLACEMENT_3D('',#691,#555,#556);
#467=AXIS2_PLACEMENT_3D('',#693,#558,#559);
#468=AXIS2_PLACEMENT_3D('',#695,#561,#562);
#469=AXIS2_PLACEMENT_3D('',#698,#565,#566);
#470=AXIS2_PLACEMENT_3D('',#701,#569,#570);
#471=AXIS2_PLACEMENT_3D('',#702,#571,#572);
#472=AXIS2_PLACEMENT_3D('',#703,#573,#574);
#473=AXIS2_PLACEMENT_3D('',#704,#575,#576);
#474=AXIS2_PLACEMENT_3D('',#707,#579,#580);
#475=AXIS2_PLACEMENT_3D('',#708,#581,#582);
#476=AXIS2_PLACEMENT_3D('',#709,#583,#584);
#477=AXIS2_PLACEMENT_3D('',#710,#585,#586);
#478=AXIS2_PLACEMENT_3D('',#711,#587,#588);
#479=AXIS2_PLACEMENT_3D('',#712,#589,#590);
#480=AXIS2_PLACEMENT_3D('',#715,#593,#594);
#481=AXIS2_PLACEMENT_3D('',#717,#596,#597);
#482=AXIS2_PLACEMENT_3D('',#719,#599,#600);
#483=DIRECTION('',(0.,0.,1.));
#484=DIRECTION('',(1.,0.,0.));
#485=DIRECTION('',(0.,0.,1.));
#486=DIRECTION('',(1.,0.,0.));
#487=DIRECTION('',(6.14061407425418E-17,1.,0.));
#488=DIRECTION('',(0.,0.,1.));
#489=DIRECTION('',(1.,0.,0.));
#490=DIRECTION('',(-1.,-1.00563679766771E-16,0.));
#491=DIRECTION('',(0.,1.,0.));
#492=DIRECTION('',(1.,0.,0.));
#493=DIRECTION('',(0.,1.,0.));
#494=DIRECTION('',(-1.,0.,0.));
#495=DIRECTION('',(0.,0.,1.));
#496=DIRECTION('',(1.,0.,0.));
#497=DIRECTION('',(6.14061407425418E-17,1.,0.));
#498=DIRECTION('',(0.,0.,1.));
#499=DIRECTION('',(1.,0.,0.));
#500=DIRECTION('',(-1.,-1.16620065611886E-16,0.));
#501=DIRECTION('',(0.,0.,1.));
#502=DIRECTION('',(1.,0.,0.));
#503=DIRECTION('',(0.,0.,1.));
#504=DIRECTION('',(1.,0.,0.));
#505=DIRECTION('',(0.,0.,1.));
#506=DIRECTION('',(1.,0.,0.));
#507=DIRECTION('',(0.,0.,1.));
#508=DIRECTION('',(1.,0.,0.));
#509=DIRECTION('',(0.,0.,1.));
#510=DIRECTION('',(1.,0.,0.));
#511=DIRECTION('',(2.89120579329468E-16,1.,0.));
#512=DIRECTION('',(-1.,-1.19262238973405E-16,0.));
#513=DIRECTION('',(2.89120579329468E-16,1.,0.));
#514=DIRECTION('',(-1.,0.,0.));
#515=DIRECTION('',(0.,0.,1.));
#516=DIRECTION('',(1.,0.,0.));
#517=DIRECTION('',(0.,0.,1.));
#518=DIRECTION('',(1.,0.,0.));
#519=DIRECTION('',(0.,0.,1.));
#520=DIRECTION('',(1.,0.,0.));
#521=DIRECTION('',(0.,0.,1.));
#522=DIRECTION('',(1.,0.,0.));
#523=DIRECTION('',(0.,0.,1.));
#524=DIRECTION('',(1.,0.,0.));
#525=DIRECTION('',(-1.,-1.00563679766771E-16,0.));
#526=DIRECTION('',(0.,0.,1.));
#527=DIRECTION('',(1.,0.,0.));
#528=DIRECTION('',(6.14061407425418E-17,1.,0.));
#529=DIRECTION('',(0.,0.,1.));
#530=DIRECTION('',(1.,0.,0.));
#531=DIRECTION('',(-1.,-1.16620065611886E-16,0.));
#532=DIRECTION('',(0.,0.,1.));
#533=DIRECTION('',(1.,0.,0.));
#534=DIRECTION('',(6.14061407425418E-17,1.,0.));
#535=DIRECTION('',(0.,0.,1.));
#536=DIRECTION('',(1.,0.,0.));
#537=DIRECTION('',(-1.,0.,0.));
#538=DIRECTION('',(0.,1.,0.));
#539=DIRECTION('',(1.,0.,0.));
#540=DIRECTION('',(0.,1.,0.));
#541=DIRECTION('',(-1.,-1.19262238973405E-16,0.));
#542=DIRECTION('',(2.89120579329468E-16,1.,0.));
#543=DIRECTION('',(-1.,0.,0.));
#544=DIRECTION('',(2.89120579329468E-16,1.,0.));
#545=DIRECTION('',(1.00563679766771E-16,-1.,0.));
#546=DIRECTION('',(1.,1.00563679766771E-16,0.));
#547=DIRECTION('',(0.,0.,-1.));
#548=DIRECTION('',(0.,0.,-1.));
#549=DIRECTION('',(-1.,0.,0.));
#550=DIRECTION('',(0.,0.,1.));
#551=DIRECTION('',(0.,0.,-1.));
#552=DIRECTION('',(0.,1.,0.));
#553=DIRECTION('',(0.,0.,1.));
#554=DIRECTION('',(0.,0.,-1.));
#555=DIRECTION('',(-1.,0.,0.));
#556=DIRECTION('',(0.,0.,1.));
#557=DIRECTION('',(0.,0.,-1.));
#558=DIRECTION('',(0.,-1.,0.));
#559=DIRECTION('',(0.,0.,-1.));
#560=DIRECTION('',(0.,0.,-1.));
#561=DIRECTION('',(-1.,6.14061407425418E-17,0.));
#562=DIRECTION('',(-6.14061407425418E-17,-1.,0.));
#563=DIRECTION('',(0.,0.,-1.));
#564=DIRECTION('',(0.,0.,-1.));
#565=DIRECTION('',(1.16620065611886E-16,-1.,0.));
#566=DIRECTION('',(1.,1.16620065611886E-16,0.));
#567=DIRECTION('',(0.,0.,-1.));
#568=DIRECTION('',(0.,0.,-1.));
#569=DIRECTION('',(0.,0.,-1.));
#570=DIRECTION('',(-1.,0.,0.));
#571=DIRECTION('',(0.,0.,-1.));
#572=DIRECTION('',(-1.,0.,0.));
#573=DIRECTION('',(0.,0.,-1.));
#574=DIRECTION('',(-1.,0.,0.));
#575=DIRECTION('',(-1.,6.14061407425418E-17,0.));
#576=DIRECTION('',(-6.14061407425418E-17,-1.,0.));
#577=DIRECTION('',(0.,0.,-1.));
#578=DIRECTION('',(0.,0.,-1.));
#579=DIRECTION('',(0.,0.,-1.));
#580=DIRECTION('',(-1.,0.,0.));
#581=DIRECTION('',(0.,0.,-1.));
#582=DIRECTION('',(-1.,0.,0.));
#583=DIRECTION('',(0.,0.,1.));
#584=DIRECTION('',(1.,0.,0.));
#585=DIRECTION('',(0.,0.,-1.));
#586=DIRECTION('',(-1.,0.,0.));
#587=DIRECTION('',(0.,0.,1.));
#588=DIRECTION('',(1.,0.,0.));
#589=DIRECTION('',(-1.19262238973405E-16,1.,0.));
#590=DIRECTION('',(-1.,-1.19262238973405E-16,0.));
#591=DIRECTION('',(0.,0.,1.));
#592=DIRECTION('',(0.,0.,1.));
#593=DIRECTION('',(1.,-2.89120579329468E-16,0.));
#594=DIRECTION('',(2.89120579329468E-16,1.,0.));
#595=DIRECTION('',(0.,0.,1.));
#596=DIRECTION('',(0.,1.,0.));
#597=DIRECTION('',(0.,0.,1.));
#598=DIRECTION('',(0.,0.,1.));
#599=DIRECTION('',(1.,-2.89120579329468E-16,0.));
#600=DIRECTION('',(2.89120579329468E-16,1.,0.));
#601=CARTESIAN_POINT('',(0.,0.,0.));
#602=CARTESIAN_POINT('',(0.,3.46944695195361E-18,0.002));
#603=CARTESIAN_POINT('',(-0.02975,0.,0.002));
#604=CARTESIAN_POINT('',(-0.02975,-0.02525,0.002));
#605=CARTESIAN_POINT('',(-0.02975,0.02525,0.002));
#606=CARTESIAN_POINT('',(-0.02675,-0.02525,0.002));
#607=CARTESIAN_POINT('',(-0.02675,-0.02825,0.002));
#608=CARTESIAN_POINT('',(-0.0125,-0.02825,0.002));
#609=CARTESIAN_POINT('',(0.00475,-0.02825,0.002));
#610=CARTESIAN_POINT('',(0.00475,-0.02625,0.002));
#611=CARTESIAN_POINT('',(0.00475,-0.02425,0.002));
#612=CARTESIAN_POINT('',(0.00925,-0.02425,0.002));
#613=CARTESIAN_POINT('',(0.01375,-0.02425,0.002));
#614=CARTESIAN_POINT('',(0.01375,-0.02625,0.002));
#615=CARTESIAN_POINT('',(0.01375,-0.02825,0.002));
#616=CARTESIAN_POINT('',(0.02175,-0.02825,0.002));
#617=CARTESIAN_POINT('',(0.02675,-0.02825,0.002));
#618=CARTESIAN_POINT('',(0.02675,-0.02525,0.002));
#619=CARTESIAN_POINT('',(0.02975,-0.02525,0.002));
#620=CARTESIAN_POINT('',(0.02975,6.93889390390723E-18,0.002));
#621=CARTESIAN_POINT('',(0.02975,0.02525,0.002));
#622=CARTESIAN_POINT('',(0.02675,0.02525,0.002));
#623=CARTESIAN_POINT('',(0.02675,0.02825,0.002));
#624=CARTESIAN_POINT('',(0.,0.02825,0.002));
#625=CARTESIAN_POINT('',(-0.02675,0.02825,0.002));
#626=CARTESIAN_POINT('',(-0.02675,0.02525,0.002));
#627=CARTESIAN_POINT('',(-0.02725,0.02575,0.002));
#628=CARTESIAN_POINT('',(-0.026,0.02575,0.002));
#629=CARTESIAN_POINT('',(0.02725,0.02575,0.002));
#630=CARTESIAN_POINT('',(0.0285,0.02575,0.002));
#631=CARTESIAN_POINT('',(-0.02725,-0.02575,0.002));
#632=CARTESIAN_POINT('',(-0.026,-0.02575,0.002));
#633=CARTESIAN_POINT('',(0.02725,-0.02575,0.002));
#634=CARTESIAN_POINT('',(0.0285,-0.02575,0.002));
#635=CARTESIAN_POINT('',(-0.01935,0.00575,0.002));
#636=CARTESIAN_POINT('',(-0.01935,-0.00025,0.002));
#637=CARTESIAN_POINT('',(-0.01935,0.01175,0.002));
#638=CARTESIAN_POINT('',(-0.02185,-0.00025,0.002));
#639=CARTESIAN_POINT('',(-0.02435,-0.00025,0.002));
#640=CARTESIAN_POINT('',(-0.02435,0.00575,0.002));
#641=CARTESIAN_POINT('',(-0.02435,0.01175,0.002));
#642=CARTESIAN_POINT('',(-0.02185,0.01175,0.002));
#643=CARTESIAN_POINT('',(0.,3.46944695195361E-18,0.));
#644=CARTESIAN_POINT('',(0.02725,-0.02575,0.));
#645=CARTESIAN_POINT('',(0.0285,-0.02575,0.));
#646=CARTESIAN_POINT('',(-0.02725,-0.02575,0.));
#647=CARTESIAN_POINT('',(-0.026,-0.02575,0.));
#648=CARTESIAN_POINT('',(0.02725,0.02575,0.));
#649=CARTESIAN_POINT('',(0.0285,0.02575,0.));
#650=CARTESIAN_POINT('',(-0.02725,0.02575,0.));
#651=CARTESIAN_POINT('',(-0.026,0.02575,0.));
#652=CARTESIAN_POINT('',(-0.0125,-0.02825,0.));
#653=CARTESIAN_POINT('',(0.00475,-0.02825,0.));
#654=CARTESIAN_POINT('',(-0.02675,-0.02825,0.));
#655=CARTESIAN_POINT('',(-0.02675,-0.02525,0.));
#656=CARTESIAN_POINT('',(-0.02975,-0.02525,0.));
#657=CARTESIAN_POINT('',(-0.02975,0.,0.));
#658=CARTESIAN_POINT('',(-0.02975,0.02525,0.));
#659=CARTESIAN_POINT('',(-0.02675,0.02525,0.));
#660=CARTESIAN_POINT('',(-0.02675,0.02825,0.));
#661=CARTESIAN_POINT('',(0.,0.02825,0.));
#662=CARTESIAN_POINT('',(0.02675,0.02825,0.));
#663=CARTESIAN_POINT('',(0.02675,0.02525,0.));
#664=CARTESIAN_POINT('',(0.02975,0.02525,0.));
#665=CARTESIAN_POINT('',(0.02975,6.93889390390723E-18,0.));
#666=CARTESIAN_POINT('',(0.02975,-0.02525,0.));
#667=CARTESIAN_POINT('',(0.02675,-0.02525,0.));
#668=CARTESIAN_POINT('',(0.02675,-0.02825,0.));
#669=CARTESIAN_POINT('',(0.02175,-0.02825,0.));
#670=CARTESIAN_POINT('',(0.01375,-0.02825,0.));
#671=CARTESIAN_POINT('',(0.01375,-0.02625,0.));
#672=CARTESIAN_POINT('',(0.01375,-0.02425,0.));
#673=CARTESIAN_POINT('',(0.00925,-0.02425,0.));
#674=CARTESIAN_POINT('',(0.00475,-0.02425,0.));
#675=CARTESIAN_POINT('',(0.00475,-0.02625,0.));
#676=CARTESIAN_POINT('',(-0.02185,-0.00025,0.));
#677=CARTESIAN_POINT('',(-0.01935,-0.00025,0.));
#678=CARTESIAN_POINT('',(-0.02435,-0.00025,0.));
#679=CARTESIAN_POINT('',(-0.01935,0.00575,0.));
#680=CARTESIAN_POINT('',(-0.01935,0.01175,0.));
#681=CARTESIAN_POINT('',(-0.02185,0.01175,0.));
#682=CARTESIAN_POINT('',(-0.02435,0.01175,0.));
#683=CARTESIAN_POINT('',(-0.02435,0.00575,0.));
#684=CARTESIAN_POINT('',(-0.0125,-0.02825,0.002));
#685=CARTESIAN_POINT('',(-0.02675,-0.02825,0.002));
#686=CARTESIAN_POINT('',(0.00475,-0.02825,0.002));
#687=CARTESIAN_POINT('',(0.00475,-0.02625,0.002));
#688=CARTESIAN_POINT('',(0.00475,-0.02425,0.002));
#689=CARTESIAN_POINT('',(0.00925,-0.02425,0.002));
#690=CARTESIAN_POINT('',(0.01375,-0.02425,0.002));
#691=CARTESIAN_POINT('',(0.01375,-0.02625,0.002));
#692=CARTESIAN_POINT('',(0.01375,-0.02825,0.002));
#693=CARTESIAN_POINT('',(0.02175,-0.02825,0.002));
#694=CARTESIAN_POINT('',(0.02675,-0.02825,0.002));
#695=CARTESIAN_POINT('',(0.02975,6.93889390390723E-18,0.002));
#696=CARTESIAN_POINT('',(0.02975,-0.02525,0.));
#697=CARTESIAN_POINT('',(0.02975,0.02525,0.002));
#698=CARTESIAN_POINT('',(0.,0.02825,0.002));
#699=CARTESIAN_POINT('',(0.02675,0.02825,0.002));
#700=CARTESIAN_POINT('',(-0.02675,0.02825,0.002));
#701=CARTESIAN_POINT('',(-0.02725,-0.02575,0.002));
#702=CARTESIAN_POINT('',(0.02725,0.02575,0.002));
#703=CARTESIAN_POINT('',(-0.02725,0.02575,0.002));
#704=CARTESIAN_POINT('',(-0.02975,0.,0.002));
#705=CARTESIAN_POINT('',(-0.02975,-0.02525,0.002));
#706=CARTESIAN_POINT('',(-0.02975,0.02525,0.));
#707=CARTESIAN_POINT('',(0.02725,-0.02575,0.002));
#708=CARTESIAN_POINT('',(-0.02675,-0.02525,0.002));
#709=CARTESIAN_POINT('',(0.02675,-0.02525,0.002));
#710=CARTESIAN_POINT('',(0.02675,0.02525,0.002));
#711=CARTESIAN_POINT('',(-0.02675,0.02525,0.002));
#712=CARTESIAN_POINT('',(-0.02185,-0.00025,0.));
#713=CARTESIAN_POINT('',(-0.01935,-0.00025,0.));
#714=CARTESIAN_POINT('',(-0.02435,-0.00025,0.));
#715=CARTESIAN_POINT('',(-0.01935,0.00575,0.));
#716=CARTESIAN_POINT('',(-0.01935,0.01175,0.));
#717=CARTESIAN_POINT('',(-0.02185,0.01175,0.));
#718=CARTESIAN_POINT('',(-0.02435,0.01175,0.));
#719=CARTESIAN_POINT('',(-0.02435,0.00575,0.));
#720=MECHANICAL_DESIGN_GEOMETRIC_PRESENTATION_REPRESENTATION('',(#433),#721);
#721=(
GEOMETRIC_REPRESENTATION_CONTEXT(3)
GLOBAL_UNCERTAINTY_ASSIGNED_CONTEXT((#722))
GLOBAL_UNIT_ASSIGNED_CONTEXT((#725,#724,#723))
REPRESENTATION_CONTEXT('Part 1','TOP_LEVEL_ASSEMBLY_PART')
);
#722=UNCERTAINTY_MEASURE_WITH_UNIT(LENGTH_MEASURE(1.E-08),#725,'DISTANCE_ACCURACY_VALUE','Maximum Tolerance applied to model');
#723=(
NAMED_UNIT(*)
SI_UNIT($,.STERADIAN.)
SOLID_ANGLE_UNIT()
);
#724=(
NAMED_UNIT(*)
PLANE_ANGLE_UNIT()
SI_UNIT($,.RADIAN.)
);
#725=(
LENGTH_UNIT()
NAMED_UNIT(*)
SI_UNIT($,.METRE.)
);
#726=PRODUCT_DEFINITION_SHAPE('','',#727);
#727=PRODUCT_DEFINITION('','',#729,#728);
#728=PRODUCT_DEFINITION_CONTEXT('',#735,'design');
#729=PRODUCT_DEFINITION_FORMATION_WITH_SPECIFIED_SOURCE('','',#731,.NOT_KNOWN.);
#730=PRODUCT_RELATED_PRODUCT_CATEGORY('','',(#731));
#731=PRODUCT('Part 1','Part 1','Part 1',(#733));
#732=PRODUCT_CATEGORY('','');
#733=PRODUCT_CONTEXT('',#735,'mechanical');
#734=APPLICATION_PROTOCOL_DEFINITION('international standard','ap242_managed_model_based_3d_engineering',2020,#735);
#735=APPLICATION_CONTEXT('managed model based 3d engineering');
ENDSEC;
END-ISO-10303-21;
