ISO-10303-21;
HEADER;
/*Generated by software containing ST-Developer
 * from STEP Tools, Inc. (www.steptools.com) 
 */
/*OPTION: using custom renumber hook */
/*description */
/*implementation_level */
FILE_DESCRIPTION(('STEP AP242 Edition 2','STEP AP242 Edition 2''CAx-IF Rec.Pracs.---Representation and Presentation of Product Manufa
cturing Information (PMI)---4.0---2014-10-13','STEP AP242 Edition 2''CAx-IF Rec.Pracs.---Representation and Presentation of Product Manufa
cturing Information (PMI)---4.0---2014-10-13''CAx-IF Rec.Pracs.---3D Tessellated Geometry---0.4---2014-09-14','STEP AP242 Edition 2''CAx-IF Rec.Pracs.---Representation and Presentation of Product Manufa
cturing Information (PMI)---4.0---2014-10-13''CAx-IF Rec.Pracs.---3D Tessellated Geometry---0.4---2014-09-14''2;1','STEP AP242 Edition 2''CAx-IF Rec.Pracs.---Representation and Presentation of Product Manufa
cturing Information (PMI)---4.0---2014-10-13''CAx-IF Rec.Pracs.---3D Tessellated Geometry---0.4---2014-09-14''2;1''CAx-IF Rec.Pracs.---User Defined Attributes---1.5---2016-08-15'),'2;1');
/*name */
/*time_stamp */
/*author */
/*organization */
/*preprocessor_version */
/*originating_system */
/*authorisation */
FILE_NAME('/vol/tmp/translate-133681303762911136/Part Studio 1.step','2026-03-15T04:32:28',(''),(''),'ST-DEVELOPER v20','ONSHAPE BY PTC INC, 1.212','  ');
FILE_SCHEMA(('AP242_MANAGED_MODEL_BASED_3D_ENGINEERING_MIM_LF { 1 0 10303 442 3 1 4 }'));
ENDSEC;
DATA;
#10=SHAPE_REPRESENTATION_RELATIONSHIP('','',#529,#11);
#11=ADVANCED_BREP_SHAPE_REPRESENTATION('',(#527),#859);
#12=CYLINDRICAL_SURFACE('',#566,0.003);
#13=CYLINDRICAL_SURFACE('',#567,0.003);
#14=CYLINDRICAL_SURFACE('',#568,0.003);
#15=CYLINDRICAL_SURFACE('',#569,0.003);
#16=CYLINDRICAL_SURFACE('',#570,0.00125);
#17=CYLINDRICAL_SURFACE('',#571,0.00125);
#18=CYLINDRICAL_SURFACE('',#572,0.00125);
#19=CYLINDRICAL_SURFACE('',#573,0.00125);
#20=CIRCLE('',#544,0.00125);
#21=CIRCLE('',#545,0.00125);
#22=CIRCLE('',#546,0.00125);
#23=CIRCLE('',#547,0.00125);
#24=CIRCLE('',#548,0.003);
#25=CIRCLE('',#549,0.003);
#26=CIRCLE('',#550,0.003);
#27=CIRCLE('',#551,0.003);
#28=CIRCLE('',#553,0.00125);
#29=CIRCLE('',#554,0.00125);
#30=CIRCLE('',#555,0.00125);
#31=CIRCLE('',#556,0.00125);
#32=CIRCLE('',#557,0.003);
#33=CIRCLE('',#558,0.003);
#34=CIRCLE('',#559,0.003);
#35=CIRCLE('',#560,0.003);
#36=ORIENTED_EDGE('',*,*,#172,.F.);
#37=ORIENTED_EDGE('',*,*,#173,.F.);
#38=ORIENTED_EDGE('',*,*,#174,.T.);
#39=ORIENTED_EDGE('',*,*,#175,.T.);
#40=ORIENTED_EDGE('',*,*,#176,.F.);
#41=ORIENTED_EDGE('',*,*,#177,.F.);
#42=ORIENTED_EDGE('',*,*,#178,.T.);
#43=ORIENTED_EDGE('',*,*,#179,.F.);
#44=ORIENTED_EDGE('',*,*,#180,.F.);
#45=ORIENTED_EDGE('',*,*,#181,.T.);
#46=ORIENTED_EDGE('',*,*,#182,.T.);
#47=ORIENTED_EDGE('',*,*,#183,.F.);
#48=ORIENTED_EDGE('',*,*,#184,.T.);
#49=ORIENTED_EDGE('',*,*,#173,.T.);
#50=ORIENTED_EDGE('',*,*,#185,.F.);
#51=ORIENTED_EDGE('',*,*,#186,.F.);
#52=ORIENTED_EDGE('',*,*,#178,.F.);
#53=ORIENTED_EDGE('',*,*,#187,.F.);
#54=ORIENTED_EDGE('',*,*,#188,.T.);
#55=ORIENTED_EDGE('',*,*,#189,.T.);
#56=ORIENTED_EDGE('',*,*,#190,.T.);
#57=ORIENTED_EDGE('',*,*,#176,.T.);
#58=ORIENTED_EDGE('',*,*,#191,.F.);
#59=ORIENTED_EDGE('',*,*,#192,.F.);
#60=ORIENTED_EDGE('',*,*,#175,.F.);
#61=ORIENTED_EDGE('',*,*,#193,.F.);
#62=ORIENTED_EDGE('',*,*,#194,.T.);
#63=ORIENTED_EDGE('',*,*,#191,.T.);
#64=ORIENTED_EDGE('',*,*,#174,.F.);
#65=ORIENTED_EDGE('',*,*,#184,.F.);
#66=ORIENTED_EDGE('',*,*,#195,.T.);
#67=ORIENTED_EDGE('',*,*,#193,.T.);
#68=ORIENTED_EDGE('',*,*,#187,.T.);
#69=ORIENTED_EDGE('',*,*,#177,.T.);
#70=ORIENTED_EDGE('',*,*,#190,.F.);
#71=ORIENTED_EDGE('',*,*,#196,.F.);
#72=ORIENTED_EDGE('',*,*,#185,.T.);
#73=ORIENTED_EDGE('',*,*,#172,.T.);
#74=ORIENTED_EDGE('',*,*,#197,.F.);
#75=ORIENTED_EDGE('',*,*,#198,.F.);
#76=ORIENTED_EDGE('',*,*,#199,.T.);
#77=ORIENTED_EDGE('',*,*,#200,.T.);
#78=ORIENTED_EDGE('',*,*,#201,.F.);
#79=ORIENTED_EDGE('',*,*,#202,.T.);
#80=ORIENTED_EDGE('',*,*,#203,.F.);
#81=ORIENTED_EDGE('',*,*,#204,.T.);
#82=ORIENTED_EDGE('',*,*,#205,.T.);
#83=ORIENTED_EDGE('',*,*,#206,.T.);
#84=ORIENTED_EDGE('',*,*,#207,.T.);
#85=ORIENTED_EDGE('',*,*,#208,.T.);
#86=ORIENTED_EDGE('',*,*,#209,.F.);
#87=ORIENTED_EDGE('',*,*,#210,.T.);
#88=ORIENTED_EDGE('',*,*,#211,.T.);
#89=ORIENTED_EDGE('',*,*,#212,.T.);
#90=ORIENTED_EDGE('',*,*,#213,.F.);
#91=ORIENTED_EDGE('',*,*,#214,.T.);
#92=ORIENTED_EDGE('',*,*,#215,.T.);
#93=ORIENTED_EDGE('',*,*,#197,.T.);
#94=ORIENTED_EDGE('',*,*,#179,.T.);
#95=ORIENTED_EDGE('',*,*,#189,.F.);
#96=ORIENTED_EDGE('',*,*,#216,.F.);
#97=ORIENTED_EDGE('',*,*,#217,.F.);
#98=ORIENTED_EDGE('',*,*,#218,.F.);
#99=ORIENTED_EDGE('',*,*,#219,.F.);
#100=ORIENTED_EDGE('',*,*,#201,.T.);
#101=ORIENTED_EDGE('',*,*,#220,.T.);
#102=ORIENTED_EDGE('',*,*,#203,.T.);
#103=ORIENTED_EDGE('',*,*,#221,.T.);
#104=ORIENTED_EDGE('',*,*,#207,.F.);
#105=ORIENTED_EDGE('',*,*,#222,.T.);
#106=ORIENTED_EDGE('',*,*,#211,.F.);
#107=ORIENTED_EDGE('',*,*,#188,.F.);
#108=ORIENTED_EDGE('',*,*,#196,.T.);
#109=ORIENTED_EDGE('',*,*,#192,.T.);
#110=ORIENTED_EDGE('',*,*,#194,.F.);
#111=ORIENTED_EDGE('',*,*,#195,.F.);
#112=ORIENTED_EDGE('',*,*,#186,.T.);
#113=ORIENTED_EDGE('',*,*,#198,.T.);
#114=ORIENTED_EDGE('',*,*,#215,.F.);
#115=ORIENTED_EDGE('',*,*,#223,.T.);
#116=ORIENTED_EDGE('',*,*,#224,.T.);
#117=ORIENTED_EDGE('',*,*,#225,.T.);
#118=ORIENTED_EDGE('',*,*,#226,.T.);
#119=ORIENTED_EDGE('',*,*,#227,.T.);
#120=ORIENTED_EDGE('',*,*,#205,.F.);
#121=ORIENTED_EDGE('',*,*,#228,.T.);
#122=ORIENTED_EDGE('',*,*,#199,.F.);
#123=ORIENTED_EDGE('',*,*,#229,.T.);
#124=ORIENTED_EDGE('',*,*,#213,.T.);
#125=ORIENTED_EDGE('',*,*,#230,.T.);
#126=ORIENTED_EDGE('',*,*,#209,.T.);
#127=ORIENTED_EDGE('',*,*,#231,.T.);
#128=ORIENTED_EDGE('',*,*,#181,.F.);
#129=ORIENTED_EDGE('',*,*,#232,.F.);
#130=ORIENTED_EDGE('',*,*,#233,.T.);
#131=ORIENTED_EDGE('',*,*,#234,.T.);
#132=ORIENTED_EDGE('',*,*,#180,.T.);
#133=ORIENTED_EDGE('',*,*,#235,.F.);
#134=ORIENTED_EDGE('',*,*,#236,.F.);
#135=ORIENTED_EDGE('',*,*,#232,.T.);
#136=ORIENTED_EDGE('',*,*,#183,.T.);
#137=ORIENTED_EDGE('',*,*,#237,.F.);
#138=ORIENTED_EDGE('',*,*,#238,.F.);
#139=ORIENTED_EDGE('',*,*,#235,.T.);
#140=ORIENTED_EDGE('',*,*,#182,.F.);
#141=ORIENTED_EDGE('',*,*,#234,.F.);
#142=ORIENTED_EDGE('',*,*,#239,.T.);
#143=ORIENTED_EDGE('',*,*,#237,.T.);
#144=ORIENTED_EDGE('',*,*,#233,.F.);
#145=ORIENTED_EDGE('',*,*,#236,.T.);
#146=ORIENTED_EDGE('',*,*,#238,.T.);
#147=ORIENTED_EDGE('',*,*,#239,.F.);
#148=ORIENTED_EDGE('',*,*,#220,.F.);
#149=ORIENTED_EDGE('',*,*,#200,.F.);
#150=ORIENTED_EDGE('',*,*,#228,.F.);
#151=ORIENTED_EDGE('',*,*,#204,.F.);
#152=ORIENTED_EDGE('',*,*,#221,.F.);
#153=ORIENTED_EDGE('',*,*,#206,.F.);
#154=ORIENTED_EDGE('',*,*,#231,.F.);
#155=ORIENTED_EDGE('',*,*,#208,.F.);
#156=ORIENTED_EDGE('',*,*,#222,.F.);
#157=ORIENTED_EDGE('',*,*,#210,.F.);
#158=ORIENTED_EDGE('',*,*,#230,.F.);
#159=ORIENTED_EDGE('',*,*,#212,.F.);
#160=ORIENTED_EDGE('',*,*,#223,.F.);
#161=ORIENTED_EDGE('',*,*,#214,.F.);
#162=ORIENTED_EDGE('',*,*,#229,.F.);
#163=ORIENTED_EDGE('',*,*,#202,.F.);
#164=ORIENTED_EDGE('',*,*,#227,.F.);
#165=ORIENTED_EDGE('',*,*,#219,.T.);
#166=ORIENTED_EDGE('',*,*,#226,.F.);
#167=ORIENTED_EDGE('',*,*,#218,.T.);
#168=ORIENTED_EDGE('',*,*,#225,.F.);
#169=ORIENTED_EDGE('',*,*,#217,.T.);
#170=ORIENTED_EDGE('',*,*,#224,.F.);
#171=ORIENTED_EDGE('',*,*,#216,.T.);
#172=EDGE_CURVE('',#240,#241,#288,.T.);
#173=EDGE_CURVE('',#242,#240,#289,.T.);
#174=EDGE_CURVE('',#242,#243,#290,.T.);
#175=EDGE_CURVE('',#243,#244,#291,.T.);
#176=EDGE_CURVE('',#245,#244,#292,.T.);
#177=EDGE_CURVE('',#246,#245,#293,.T.);
#178=EDGE_CURVE('',#246,#247,#294,.T.);
#179=EDGE_CURVE('',#241,#247,#295,.T.);
#180=EDGE_CURVE('',#248,#249,#296,.T.);
#181=EDGE_CURVE('',#248,#250,#297,.T.);
#182=EDGE_CURVE('',#250,#251,#298,.T.);
#183=EDGE_CURVE('',#249,#251,#299,.T.);
#184=EDGE_CURVE('',#252,#242,#300,.T.);
#185=EDGE_CURVE('',#253,#240,#301,.T.);
#186=EDGE_CURVE('',#252,#253,#302,.T.);
#187=EDGE_CURVE('',#254,#246,#303,.T.);
#188=EDGE_CURVE('',#254,#255,#304,.T.);
#189=EDGE_CURVE('',#255,#247,#305,.T.);
#190=EDGE_CURVE('',#256,#245,#306,.T.);
#191=EDGE_CURVE('',#257,#244,#307,.T.);
#192=EDGE_CURVE('',#256,#257,#308,.T.);
#193=EDGE_CURVE('',#258,#243,#309,.T.);
#194=EDGE_CURVE('',#258,#257,#310,.T.);
#195=EDGE_CURVE('',#252,#258,#311,.T.);
#196=EDGE_CURVE('',#254,#256,#312,.T.);
#197=EDGE_CURVE('',#259,#241,#313,.T.);
#198=EDGE_CURVE('',#253,#259,#314,.T.);
#199=EDGE_CURVE('',#260,#261,#315,.T.);
#200=EDGE_CURVE('',#261,#262,#316,.F.);
#201=EDGE_CURVE('',#263,#262,#317,.T.);
#202=EDGE_CURVE('',#263,#260,#318,.T.);
#203=EDGE_CURVE('',#264,#265,#319,.T.);
#204=EDGE_CURVE('',#264,#266,#320,.T.);
#205=EDGE_CURVE('',#266,#267,#321,.T.);
#206=EDGE_CURVE('',#267,#265,#322,.F.);
#207=EDGE_CURVE('',#268,#269,#323,.T.);
#208=EDGE_CURVE('',#269,#270,#324,.T.);
#209=EDGE_CURVE('',#271,#270,#325,.T.);
#210=EDGE_CURVE('',#271,#268,#326,.F.);
#211=EDGE_CURVE('',#255,#272,#327,.T.);
#212=EDGE_CURVE('',#272,#273,#328,.T.);
#213=EDGE_CURVE('',#274,#273,#329,.T.);
#214=EDGE_CURVE('',#274,#275,#330,.F.);
#215=EDGE_CURVE('',#275,#259,#331,.T.);
#216=EDGE_CURVE('',#276,#276,#20,.T.);
#217=EDGE_CURVE('',#277,#277,#21,.T.);
#218=EDGE_CURVE('',#278,#278,#22,.T.);
#219=EDGE_CURVE('',#279,#279,#23,.T.);
#220=EDGE_CURVE('',#262,#264,#24,.T.);
#221=EDGE_CURVE('',#265,#269,#25,.T.);
#222=EDGE_CURVE('',#268,#272,#26,.T.);
#223=EDGE_CURVE('',#275,#263,#27,.T.);
#224=EDGE_CURVE('',#280,#280,#28,.T.);
#225=EDGE_CURVE('',#281,#281,#29,.T.);
#226=EDGE_CURVE('',#282,#282,#30,.T.);
#227=EDGE_CURVE('',#283,#283,#31,.T.);
#228=EDGE_CURVE('',#266,#261,#32,.F.);
#229=EDGE_CURVE('',#260,#274,#33,.F.);
#230=EDGE_CURVE('',#273,#271,#34,.F.);
#231=EDGE_CURVE('',#270,#267,#35,.F.);
#232=EDGE_CURVE('',#284,#248,#332,.T.);
#233=EDGE_CURVE('',#284,#285,#333,.T.);
#234=EDGE_CURVE('',#285,#250,#334,.T.);
#235=EDGE_CURVE('',#286,#249,#335,.T.);
#236=EDGE_CURVE('',#284,#286,#336,.T.);
#237=EDGE_CURVE('',#287,#251,#337,.T.);
#238=EDGE_CURVE('',#286,#287,#338,.T.);
#239=EDGE_CURVE('',#285,#287,#339,.T.);
#240=VERTEX_POINT('',#717);
#241=VERTEX_POINT('',#718);
#242=VERTEX_POINT('',#720);
#243=VERTEX_POINT('',#722);
#244=VERTEX_POINT('',#724);
#245=VERTEX_POINT('',#726);
#246=VERTEX_POINT('',#728);
#247=VERTEX_POINT('',#730);
#248=VERTEX_POINT('',#733);
#249=VERTEX_POINT('',#734);
#250=VERTEX_POINT('',#736);
#251=VERTEX_POINT('',#738);
#252=VERTEX_POINT('',#742);
#253=VERTEX_POINT('',#744);
#254=VERTEX_POINT('',#748);
#255=VERTEX_POINT('',#750);
#256=VERTEX_POINT('',#754);
#257=VERTEX_POINT('',#756);
#258=VERTEX_POINT('',#760);
#259=VERTEX_POINT('',#768);
#260=VERTEX_POINT('',#772);
#261=VERTEX_POINT('',#773);
#262=VERTEX_POINT('',#775);
#263=VERTEX_POINT('',#777);
#264=VERTEX_POINT('',#781);
#265=VERTEX_POINT('',#782);
#266=VERTEX_POINT('',#784);
#267=VERTEX_POINT('',#786);
#268=VERTEX_POINT('',#790);
#269=VERTEX_POINT('',#791);
#270=VERTEX_POINT('',#793);
#271=VERTEX_POINT('',#795);
#272=VERTEX_POINT('',#799);
#273=VERTEX_POINT('',#801);
#274=VERTEX_POINT('',#803);
#275=VERTEX_POINT('',#805);
#276=VERTEX_POINT('',#809);
#277=VERTEX_POINT('',#811);
#278=VERTEX_POINT('',#813);
#279=VERTEX_POINT('',#815);
#280=VERTEX_POINT('',#822);
#281=VERTEX_POINT('',#824);
#282=VERTEX_POINT('',#826);
#283=VERTEX_POINT('',#828);
#284=VERTEX_POINT('',#835);
#285=VERTEX_POINT('',#837);
#286=VERTEX_POINT('',#841);
#287=VERTEX_POINT('',#845);
#288=LINE('',#716,#340);
#289=LINE('',#719,#341);
#290=LINE('',#721,#342);
#291=LINE('',#723,#343);
#292=LINE('',#725,#344);
#293=LINE('',#727,#345);
#294=LINE('',#729,#346);
#295=LINE('',#731,#347);
#296=LINE('',#732,#348);
#297=LINE('',#735,#349);
#298=LINE('',#737,#350);
#299=LINE('',#739,#351);
#300=LINE('',#741,#352);
#301=LINE('',#743,#353);
#302=LINE('',#745,#354);
#303=LINE('',#747,#355);
#304=LINE('',#749,#356);
#305=LINE('',#751,#357);
#306=LINE('',#753,#358);
#307=LINE('',#755,#359);
#308=LINE('',#757,#360);
#309=LINE('',#759,#361);
#310=LINE('',#761,#362);
#311=LINE('',#763,#363);
#312=LINE('',#765,#364);
#313=LINE('',#767,#365);
#314=LINE('',#769,#366);
#315=LINE('',#771,#367);
#316=LINE('',#774,#368);
#317=LINE('',#776,#369);
#318=LINE('',#778,#370);
#319=LINE('',#780,#371);
#320=LINE('',#783,#372);
#321=LINE('',#785,#373);
#322=LINE('',#787,#374);
#323=LINE('',#789,#375);
#324=LINE('',#792,#376);
#325=LINE('',#794,#377);
#326=LINE('',#796,#378);
#327=LINE('',#798,#379);
#328=LINE('',#800,#380);
#329=LINE('',#802,#381);
#330=LINE('',#804,#382);
#331=LINE('',#806,#383);
#332=LINE('',#834,#384);
#333=LINE('',#836,#385);
#334=LINE('',#838,#386);
#335=LINE('',#840,#387);
#336=LINE('',#842,#388);
#337=LINE('',#844,#389);
#338=LINE('',#846,#390);
#339=LINE('',#848,#391);
#340=VECTOR('',#578,1.);
#341=VECTOR('',#579,1.);
#342=VECTOR('',#580,1.);
#343=VECTOR('',#581,1.);
#344=VECTOR('',#582,1.);
#345=VECTOR('',#583,1.);
#346=VECTOR('',#584,1.);
#347=VECTOR('',#585,1.);
#348=VECTOR('',#586,1.);
#349=VECTOR('',#587,1.);
#350=VECTOR('',#588,1.);
#351=VECTOR('',#589,1.);
#352=VECTOR('',#592,1.);
#353=VECTOR('',#593,1.);
#354=VECTOR('',#594,1.);
#355=VECTOR('',#597,1.);
#356=VECTOR('',#598,1.);
#357=VECTOR('',#599,1.);
#358=VECTOR('',#602,1.);
#359=VECTOR('',#603,1.);
#360=VECTOR('',#604,1.);
#361=VECTOR('',#607,1.);
#362=VECTOR('',#608,1.);
#363=VECTOR('',#611,1.);
#364=VECTOR('',#614,1.);
#365=VECTOR('',#617,1.);
#366=VECTOR('',#618,1.);
#367=VECTOR('',#621,1.);
#368=VECTOR('',#622,1.);
#369=VECTOR('',#623,1.);
#370=VECTOR('',#624,1.);
#371=VECTOR('',#627,1.);
#372=VECTOR('',#628,1.);
#373=VECTOR('',#629,1.);
#374=VECTOR('',#630,1.);
#375=VECTOR('',#633,1.);
#376=VECTOR('',#634,1.);
#377=VECTOR('',#635,1.);
#378=VECTOR('',#636,1.);
#379=VECTOR('',#639,1.);
#380=VECTOR('',#640,1.);
#381=VECTOR('',#641,1.);
#382=VECTOR('',#642,1.);
#383=VECTOR('',#643,1.);
#384=VECTOR('',#682,1.);
#385=VECTOR('',#683,1.);
#386=VECTOR('',#684,1.);
#387=VECTOR('',#687,1.);
#388=VECTOR('',#688,1.);
#389=VECTOR('',#691,1.);
#390=VECTOR('',#692,1.);
#391=VECTOR('',#695,1.);
#392=EDGE_LOOP('',(#36,#37,#38,#39,#40,#41,#42,#43));
#393=EDGE_LOOP('',(#44,#45,#46,#47));
#394=EDGE_LOOP('',(#48,#49,#50,#51));
#395=EDGE_LOOP('',(#52,#53,#54,#55));
#396=EDGE_LOOP('',(#56,#57,#58,#59));
#397=EDGE_LOOP('',(#60,#61,#62,#63));
#398=EDGE_LOOP('',(#64,#65,#66,#67));
#399=EDGE_LOOP('',(#68,#69,#70,#71));
#400=EDGE_LOOP('',(#72,#73,#74,#75));
#401=EDGE_LOOP('',(#76,#77,#78,#79));
#402=EDGE_LOOP('',(#80,#81,#82,#83));
#403=EDGE_LOOP('',(#84,#85,#86,#87));
#404=EDGE_LOOP('',(#88,#89,#90,#91,#92,#93,#94,#95));
#405=EDGE_LOOP('',(#96));
#406=EDGE_LOOP('',(#97));
#407=EDGE_LOOP('',(#98));
#408=EDGE_LOOP('',(#99));
#409=EDGE_LOOP('',(#100,#101,#102,#103,#104,#105,#106,#107,#108,#109,#110,#111,#112,#113,#114,#115));
#410=EDGE_LOOP('',(#116));
#411=EDGE_LOOP('',(#117));
#412=EDGE_LOOP('',(#118));
#413=EDGE_LOOP('',(#119));
#414=EDGE_LOOP('',(#120,#121,#122,#123,#124,#125,#126,#127));
#415=EDGE_LOOP('',(#128,#129,#130,#131));
#416=EDGE_LOOP('',(#132,#133,#134,#135));
#417=EDGE_LOOP('',(#136,#137,#138,#139));
#418=EDGE_LOOP('',(#140,#141,#142,#143));
#419=EDGE_LOOP('',(#144,#145,#146,#147));
#420=EDGE_LOOP('',(#148,#149,#150,#151));
#421=EDGE_LOOP('',(#152,#153,#154,#155));
#422=EDGE_LOOP('',(#156,#157,#158,#159));
#423=EDGE_LOOP('',(#160,#161,#162,#163));
#424=EDGE_LOOP('',(#164));
#425=EDGE_LOOP('',(#165));
#426=EDGE_LOOP('',(#166));
#427=EDGE_LOOP('',(#167));
#428=EDGE_LOOP('',(#168));
#429=EDGE_LOOP('',(#169));
#430=EDGE_LOOP('',(#170));
#431=EDGE_LOOP('',(#171));
#432=FACE_BOUND('',#392,.T.);
#433=FACE_BOUND('',#393,.T.);
#434=FACE_BOUND('',#394,.T.);
#435=FACE_BOUND('',#395,.T.);
#436=FACE_BOUND('',#396,.T.);
#437=FACE_BOUND('',#397,.T.);
#438=FACE_BOUND('',#398,.T.);
#439=FACE_BOUND('',#399,.T.);
#440=FACE_BOUND('',#400,.T.);
#441=FACE_BOUND('',#401,.T.);
#442=FACE_BOUND('',#402,.T.);
#443=FACE_BOUND('',#403,.T.);
#444=FACE_BOUND('',#404,.T.);
#445=FACE_BOUND('',#405,.T.);
#446=FACE_BOUND('',#406,.T.);
#447=FACE_BOUND('',#407,.T.);
#448=FACE_BOUND('',#408,.T.);
#449=FACE_BOUND('',#409,.T.);
#450=FACE_BOUND('',#410,.T.);
#451=FACE_BOUND('',#411,.T.);
#452=FACE_BOUND('',#412,.T.);
#453=FACE_BOUND('',#413,.T.);
#454=FACE_BOUND('',#414,.T.);
#455=FACE_BOUND('',#415,.T.);
#456=FACE_BOUND('',#416,.T.);
#457=FACE_BOUND('',#417,.T.);
#458=FACE_BOUND('',#418,.T.);
#459=FACE_BOUND('',#419,.T.);
#460=FACE_BOUND('',#420,.T.);
#461=FACE_BOUND('',#421,.T.);
#462=FACE_BOUND('',#422,.T.);
#463=FACE_BOUND('',#423,.T.);
#464=FACE_BOUND('',#424,.T.);
#465=FACE_BOUND('',#425,.T.);
#466=FACE_BOUND('',#426,.T.);
#467=FACE_BOUND('',#427,.T.);
#468=FACE_BOUND('',#428,.T.);
#469=FACE_BOUND('',#429,.T.);
#470=FACE_BOUND('',#430,.T.);
#471=FACE_BOUND('',#431,.T.);
#472=PLANE('',#531);
#473=PLANE('',#532);
#474=PLANE('',#533);
#475=PLANE('',#534);
#476=PLANE('',#535);
#477=PLANE('',#536);
#478=PLANE('',#537);
#479=PLANE('',#538);
#480=PLANE('',#539);
#481=PLANE('',#540);
#482=PLANE('',#541);
#483=PLANE('',#542);
#484=PLANE('',#543);
#485=PLANE('',#552);
#486=PLANE('',#561);
#487=PLANE('',#562);
#488=PLANE('',#563);
#489=PLANE('',#564);
#490=PLANE('',#565);
#491=ADVANCED_FACE('',(#432,#433),#472,.T.);
#492=ADVANCED_FACE('',(#434),#473,.F.);
#493=ADVANCED_FACE('',(#435),#474,.T.);
#494=ADVANCED_FACE('',(#436),#475,.F.);
#495=ADVANCED_FACE('',(#437),#476,.T.);
#496=ADVANCED_FACE('',(#438),#477,.T.);
#497=ADVANCED_FACE('',(#439),#478,.F.);
#498=ADVANCED_FACE('',(#440),#479,.F.);
#499=ADVANCED_FACE('',(#441),#480,.F.);
#500=ADVANCED_FACE('',(#442),#481,.F.);
#501=ADVANCED_FACE('',(#443),#482,.T.);
#502=ADVANCED_FACE('',(#444),#483,.T.);
#503=ADVANCED_FACE('',(#445,#446,#447,#448,#449),#484,.T.);
#504=ADVANCED_FACE('',(#450,#451,#452,#453,#454),#485,.F.);
#505=ADVANCED_FACE('',(#455),#486,.T.);
#506=ADVANCED_FACE('',(#456),#487,.F.);
#507=ADVANCED_FACE('',(#457),#488,.F.);
#508=ADVANCED_FACE('',(#458),#489,.T.);
#509=ADVANCED_FACE('',(#459),#490,.T.);
#510=ADVANCED_FACE('',(#460),#12,.T.);
#511=ADVANCED_FACE('',(#461),#13,.T.);
#512=ADVANCED_FACE('',(#462),#14,.T.);
#513=ADVANCED_FACE('',(#463),#15,.T.);
#514=ADVANCED_FACE('',(#464,#465),#16,.F.);
#515=ADVANCED_FACE('',(#466,#467),#17,.F.);
#516=ADVANCED_FACE('',(#468,#469),#18,.F.);
#517=ADVANCED_FACE('',(#470,#471),#19,.F.);
#518=CLOSED_SHELL('',(#491,#492,#493,#494,#495,#496,#497,#498,#499,#500,#501,#502,#503,#504,#505,#506,#507,#508,#509,#510,#511,#512,#513,#514,#515,#516,#517));
#519=STYLED_ITEM('',(#520),#527);
#520=PRESENTATION_STYLE_ASSIGNMENT((#521));
#521=SURFACE_STYLE_USAGE(.BOTH.,#522);
#522=SURFACE_SIDE_STYLE('',(#523));
#523=SURFACE_STYLE_FILL_AREA(#524);
#524=FILL_AREA_STYLE('',(#525));
#525=FILL_AREA_STYLE_COLOUR('',#526);
#526=COLOUR_RGB('',0.615686274509804,0.811764705882353,0.929411764705882);
#527=MANIFOLD_SOLID_BREP('Part 1',#518);
#528=SHAPE_DEFINITION_REPRESENTATION(#864,#529);
#529=SHAPE_REPRESENTATION('Part 1',(#530),#859);
#530=AXIS2_PLACEMENT_3D('',#714,#574,#575);
#531=AXIS2_PLACEMENT_3D('',#715,#576,#577);
#532=AXIS2_PLACEMENT_3D('',#740,#590,#591);
#533=AXIS2_PLACEMENT_3D('',#746,#595,#596);
#534=AXIS2_PLACEMENT_3D('',#752,#600,#601);
#535=AXIS2_PLACEMENT_3D('',#758,#605,#606);
#536=AXIS2_PLACEMENT_3D('',#762,#609,#610);
#537=AXIS2_PLACEMENT_3D('',#764,#612,#613);
#538=AXIS2_PLACEMENT_3D('',#766,#615,#616);
#539=AXIS2_PLACEMENT_3D('',#770,#619,#620);
#540=AXIS2_PLACEMENT_3D('',#779,#625,#626);
#541=AXIS2_PLACEMENT_3D('',#788,#631,#632);
#542=AXIS2_PLACEMENT_3D('',#797,#637,#638);
#543=AXIS2_PLACEMENT_3D('',#807,#644,#645);
#544=AXIS2_PLACEMENT_3D('',#808,#646,#647);
#545=AXIS2_PLACEMENT_3D('',#810,#648,#649);
#546=AXIS2_PLACEMENT_3D('',#812,#650,#651);
#547=AXIS2_PLACEMENT_3D('',#814,#652,#653);
#548=AXIS2_PLACEMENT_3D('',#816,#654,#655);
#549=AXIS2_PLACEMENT_3D('',#817,#656,#657);
#550=AXIS2_PLACEMENT_3D('',#818,#658,#659);
#551=AXIS2_PLACEMENT_3D('',#819,#660,#661);
#552=AXIS2_PLACEMENT_3D('',#820,#662,#663);
#553=AXIS2_PLACEMENT_3D('',#821,#664,#665);
#554=AXIS2_PLACEMENT_3D('',#823,#666,#667);
#555=AXIS2_PLACEMENT_3D('',#825,#668,#669);
#556=AXIS2_PLACEMENT_3D('',#827,#670,#671);
#557=AXIS2_PLACEMENT_3D('',#829,#672,#673);
#558=AXIS2_PLACEMENT_3D('',#830,#674,#675);
#559=AXIS2_PLACEMENT_3D('',#831,#676,#677);
#560=AXIS2_PLACEMENT_3D('',#832,#678,#679);
#561=AXIS2_PLACEMENT_3D('',#833,#680,#681);
#562=AXIS2_PLACEMENT_3D('',#839,#685,#686);
#563=AXIS2_PLACEMENT_3D('',#843,#689,#690);
#564=AXIS2_PLACEMENT_3D('',#847,#693,#694);
#565=AXIS2_PLACEMENT_3D('',#849,#696,#697);
#566=AXIS2_PLACEMENT_3D('',#850,#698,#699);
#567=AXIS2_PLACEMENT_3D('',#851,#700,#701);
#568=AXIS2_PLACEMENT_3D('',#852,#702,#703);
#569=AXIS2_PLACEMENT_3D('',#853,#704,#705);
#570=AXIS2_PLACEMENT_3D('',#854,#706,#707);
#571=AXIS2_PLACEMENT_3D('',#855,#708,#709);
#572=AXIS2_PLACEMENT_3D('',#856,#710,#711);
#573=AXIS2_PLACEMENT_3D('',#857,#712,#713);
#574=DIRECTION('',(0.,0.,1.));
#575=DIRECTION('',(1.,0.,0.));
#576=DIRECTION('',(0.,0.,1.));
#577=DIRECTION('',(1.,0.,0.));
#578=DIRECTION('',(-4.95635278850516E-16,-1.,0.));
#579=DIRECTION('',(-1.,-1.06752213906265E-16,0.));
#580=DIRECTION('',(-1.40179674826409E-16,1.,0.));
#581=DIRECTION('',(-1.,-1.32169407693471E-16,0.));
#582=DIRECTION('',(-1.40179674826409E-16,1.,0.));
#583=DIRECTION('',(-1.,-1.06752213906265E-16,0.));
#584=DIRECTION('',(-2.47817639425258E-16,-1.,0.));
#585=DIRECTION('',(-1.,-2.10269512239613E-16,0.));
#586=DIRECTION('',(-2.89120579329468E-16,1.,0.));
#587=DIRECTION('',(-1.,-1.3010426069826E-16,0.));
#588=DIRECTION('',(-2.89120579329468E-16,1.,0.));
#589=DIRECTION('',(-1.,0.,0.));
#590=DIRECTION('',(2.66880534765663E-16,-1.,0.));
#591=DIRECTION('',(1.,2.66880534765663E-16,0.));
#592=DIRECTION('',(0.,0.,-1.));
#593=DIRECTION('',(0.,0.,-1.));
#594=DIRECTION('',(-1.,-2.66880534765663E-16,0.));
#595=DIRECTION('',(1.,-2.47817639425258E-16,0.));
#596=DIRECTION('',(2.47817639425258E-16,1.,0.));
#597=DIRECTION('',(0.,0.,-1.));
#598=DIRECTION('',(-2.47817639425258E-16,-1.,0.));
#599=DIRECTION('',(0.,0.,-1.));
#600=DIRECTION('',(-1.,-1.40179674826409E-16,0.));
#601=DIRECTION('',(1.40179674826409E-16,-1.,0.));
#602=DIRECTION('',(0.,0.,-1.));
#603=DIRECTION('',(0.,0.,-1.));
#604=DIRECTION('',(-1.40179674826409E-16,1.,0.));
#605=DIRECTION('',(1.32169407693471E-16,-1.,0.));
#606=DIRECTION('',(1.,1.32169407693471E-16,0.));
#607=DIRECTION('',(0.,0.,-1.));
#608=DIRECTION('',(-1.,-1.32169407693471E-16,0.));
#609=DIRECTION('',(-1.,-1.40179674826409E-16,0.));
#610=DIRECTION('',(1.40179674826409E-16,-1.,0.));
#611=DIRECTION('',(-1.40179674826409E-16,1.,0.));
#612=DIRECTION('',(2.66880534765663E-16,-1.,0.));
#613=DIRECTION('',(1.,2.66880534765663E-16,0.));
#614=DIRECTION('',(-1.,-1.06752213906265E-16,0.));
#615=DIRECTION('',(1.,-4.95635278850516E-16,0.));
#616=DIRECTION('',(4.95635278850516E-16,1.,0.));
#617=DIRECTION('',(0.,0.,-1.));
#618=DIRECTION('',(-4.95635278850516E-16,-1.,0.));
#619=DIRECTION('',(-1.,-1.22812281485084E-16,0.));
#620=DIRECTION('',(1.22812281485084E-16,-1.,0.));
#621=DIRECTION('',(-1.22812281485084E-16,1.,0.));
#622=DIRECTION('',(0.,0.,-1.));
#623=DIRECTION('',(-1.22812281485084E-16,1.,0.));
#624=DIRECTION('',(0.,0.,-1.));
#625=DIRECTION('',(1.16620065611886E-16,-1.,0.));
#626=DIRECTION('',(1.,1.16620065611886E-16,0.));
#627=DIRECTION('',(-1.,-1.16620065611886E-16,0.));
#628=DIRECTION('',(0.,0.,-1.));
#629=DIRECTION('',(-1.,-1.16620065611886E-16,0.));
#630=DIRECTION('',(0.,0.,-1.));
#631=DIRECTION('',(-1.,-1.22812281485084E-16,0.));
#632=DIRECTION('',(1.22812281485084E-16,-1.,0.));
#633=DIRECTION('',(-1.22812281485084E-16,1.,0.));
#634=DIRECTION('',(0.,0.,-1.));
#635=DIRECTION('',(-1.22812281485084E-16,1.,0.));
#636=DIRECTION('',(0.,0.,-1.));
#637=DIRECTION('',(9.63735264431559E-17,-1.,0.));
#638=DIRECTION('',(1.,9.63735264431559E-17,0.));
#639=DIRECTION('',(-1.,-9.63735264431559E-17,0.));
#640=DIRECTION('',(0.,0.,-1.));
#641=DIRECTION('',(-1.,-9.63735264431559E-17,0.));
#642=DIRECTION('',(0.,0.,-1.));
#643=DIRECTION('',(-1.,-2.10269512239613E-16,0.));
#644=DIRECTION('',(0.,0.,1.));
#645=DIRECTION('',(1.,0.,0.));
#646=DIRECTION('',(0.,0.,1.));
#647=DIRECTION('',(1.,0.,0.));
#648=DIRECTION('',(0.,0.,1.));
#649=DIRECTION('',(1.,0.,0.));
#650=DIRECTION('',(0.,0.,1.));
#651=DIRECTION('',(1.,0.,0.));
#652=DIRECTION('',(0.,0.,1.));
#653=DIRECTION('',(1.,0.,0.));
#654=DIRECTION('',(0.,0.,1.));
#655=DIRECTION('',(1.,0.,0.));
#656=DIRECTION('',(0.,0.,1.));
#657=DIRECTION('',(1.,0.,0.));
#658=DIRECTION('',(0.,0.,1.));
#659=DIRECTION('',(1.,0.,0.));
#660=DIRECTION('',(0.,0.,1.));
#661=DIRECTION('',(1.,0.,0.));
#662=DIRECTION('',(0.,0.,1.));
#663=DIRECTION('',(1.,0.,0.));
#664=DIRECTION('',(0.,0.,1.));
#665=DIRECTION('',(1.,0.,0.));
#666=DIRECTION('',(0.,0.,1.));
#667=DIRECTION('',(1.,0.,0.));
#668=DIRECTION('',(0.,0.,1.));
#669=DIRECTION('',(1.,0.,0.));
#670=DIRECTION('',(0.,0.,1.));
#671=DIRECTION('',(1.,0.,0.));
#672=DIRECTION('',(0.,0.,1.));
#673=DIRECTION('',(1.,0.,0.));
#674=DIRECTION('',(0.,0.,1.));
#675=DIRECTION('',(1.,0.,0.));
#676=DIRECTION('',(0.,0.,1.));
#677=DIRECTION('',(1.,0.,0.));
#678=DIRECTION('',(0.,0.,1.));
#679=DIRECTION('',(1.,0.,0.));
#680=DIRECTION('',(-1.3010426069826E-16,1.,0.));
#681=DIRECTION('',(-1.,-1.3010426069826E-16,0.));
#682=DIRECTION('',(0.,0.,1.));
#683=DIRECTION('',(-1.,-1.3010426069826E-16,0.));
#684=DIRECTION('',(0.,0.,1.));
#685=DIRECTION('',(1.,2.89120579329468E-16,0.));
#686=DIRECTION('',(-2.89120579329468E-16,1.,0.));
#687=DIRECTION('',(0.,0.,1.));
#688=DIRECTION('',(-2.89120579329468E-16,1.,0.));
#689=DIRECTION('',(0.,1.,0.));
#690=DIRECTION('',(0.,0.,1.));
#691=DIRECTION('',(0.,0.,1.));
#692=DIRECTION('',(-1.,0.,0.));
#693=DIRECTION('',(1.,2.89120579329468E-16,0.));
#694=DIRECTION('',(-2.89120579329468E-16,1.,0.));
#695=DIRECTION('',(-2.89120579329468E-16,1.,0.));
#696=DIRECTION('',(0.,0.,1.));
#697=DIRECTION('',(1.,0.,0.));
#698=DIRECTION('',(0.,0.,-1.));
#699=DIRECTION('',(-1.,0.,0.));
#700=DIRECTION('',(0.,0.,1.));
#701=DIRECTION('',(1.,0.,0.));
#702=DIRECTION('',(0.,0.,-1.));
#703=DIRECTION('',(-1.,0.,0.));
#704=DIRECTION('',(0.,0.,1.));
#705=DIRECTION('',(1.,0.,0.));
#706=DIRECTION('',(0.,0.,1.));
#707=DIRECTION('',(1.,0.,0.));
#708=DIRECTION('',(0.,0.,1.));
#709=DIRECTION('',(1.,0.,0.));
#710=DIRECTION('',(0.,0.,1.));
#711=DIRECTION('',(1.,0.,0.));
#712=DIRECTION('',(0.,0.,1.));
#713=DIRECTION('',(1.,0.,0.));
#714=CARTESIAN_POINT('',(0.,0.,0.));
#715=CARTESIAN_POINT('',(0.,3.46944695195361E-18,0.003));
#716=CARTESIAN_POINT('',(0.01325,-0.0265,0.003));
#717=CARTESIAN_POINT('',(0.01325,-0.02475,0.003));
#718=CARTESIAN_POINT('',(0.01325,-0.02825,0.003));
#719=CARTESIAN_POINT('',(-0.01,-0.02475,0.003));
#720=CARTESIAN_POINT('',(0.02625,-0.02475,0.003));
#721=CARTESIAN_POINT('',(0.02625,3.46944695195361E-18,0.003));
#722=CARTESIAN_POINT('',(0.02625,0.02475,0.003));
#723=CARTESIAN_POINT('',(-3.46944695195361E-18,0.02475,0.003));
#724=CARTESIAN_POINT('',(-0.02625,0.02475,0.003));
#725=CARTESIAN_POINT('',(-0.02625,-3.46944695195361E-18,0.003));
#726=CARTESIAN_POINT('',(-0.02625,-0.02475,0.003));
#727=CARTESIAN_POINT('',(-0.01,-0.02475,0.003));
#728=CARTESIAN_POINT('',(0.00625,-0.02475,0.003));
#729=CARTESIAN_POINT('',(0.00625,-0.0265,0.003));
#730=CARTESIAN_POINT('',(0.00625,-0.02825,0.003));
#731=CARTESIAN_POINT('',(0.0215,-0.02825,0.003));
#732=CARTESIAN_POINT('',(-0.01935,0.00575,0.003));
#733=CARTESIAN_POINT('',(-0.01935,-0.00025,0.003));
#734=CARTESIAN_POINT('',(-0.01935,0.01175,0.003));
#735=CARTESIAN_POINT('',(-0.02185,-0.00025,0.003));
#736=CARTESIAN_POINT('',(-0.02435,-0.000250000000000004,0.003));
#737=CARTESIAN_POINT('',(-0.02435,0.00575,0.003));
#738=CARTESIAN_POINT('',(-0.02435,0.01175,0.003));
#739=CARTESIAN_POINT('',(-0.02185,0.01175,0.003));
#740=CARTESIAN_POINT('',(0.01975,-0.02475,0.0095));
#741=CARTESIAN_POINT('',(0.02625,-0.02475,0.0095));
#742=CARTESIAN_POINT('',(0.02625,-0.02475,0.0095));
#743=CARTESIAN_POINT('',(0.01325,-0.02475,0.0095));
#744=CARTESIAN_POINT('',(0.01325,-0.02475,0.0095));
#745=CARTESIAN_POINT('',(0.01975,-0.02475,0.0095));
#746=CARTESIAN_POINT('',(0.00625,-0.0265,0.0095));
#747=CARTESIAN_POINT('',(0.00625,-0.02475,0.0095));
#748=CARTESIAN_POINT('',(0.00625,-0.02475,0.0095));
#749=CARTESIAN_POINT('',(0.00625,-0.0265,0.0095));
#750=CARTESIAN_POINT('',(0.00625,-0.02825,0.0095));
#751=CARTESIAN_POINT('',(0.00625,-0.02825,0.0095));
#752=CARTESIAN_POINT('',(-0.02625,-3.46944695195361E-18,0.0095));
#753=CARTESIAN_POINT('',(-0.02625,-0.02475,0.0095));
#754=CARTESIAN_POINT('',(-0.02625,-0.02475,0.0095));
#755=CARTESIAN_POINT('',(-0.02625,0.02475,0.0095));
#756=CARTESIAN_POINT('',(-0.02625,0.02475,0.0095));
#757=CARTESIAN_POINT('',(-0.02625,-3.46944695195361E-18,0.0095));
#758=CARTESIAN_POINT('',(-3.46944695195361E-18,0.02475,0.0095));
#759=CARTESIAN_POINT('',(0.02625,0.02475,0.0095));
#760=CARTESIAN_POINT('',(0.02625,0.02475,0.0095));
#761=CARTESIAN_POINT('',(-3.46944695195361E-18,0.02475,0.0095));
#762=CARTESIAN_POINT('',(0.02625,3.46944695195361E-18,0.0095));
#763=CARTESIAN_POINT('',(0.02625,3.46944695195361E-18,0.0095));
#764=CARTESIAN_POINT('',(0.01975,-0.02475,0.0095));
#765=CARTESIAN_POINT('',(-0.01,-0.02475,0.0095));
#766=CARTESIAN_POINT('',(0.01325,-0.0265,0.0095));
#767=CARTESIAN_POINT('',(0.01325,-0.02825,0.0095));
#768=CARTESIAN_POINT('',(0.01325,-0.02825,0.0095));
#769=CARTESIAN_POINT('',(0.01325,-0.0265,0.0095));
#770=CARTESIAN_POINT('',(0.02975,3.46944695195361E-18,0.0095));
#771=CARTESIAN_POINT('',(0.02975,3.46944695195361E-18,0.));
#772=CARTESIAN_POINT('',(0.02975,-0.02525,0.));
#773=CARTESIAN_POINT('',(0.02975,0.02525,0.));
#774=CARTESIAN_POINT('',(0.02975,0.02525,0.0095));
#775=CARTESIAN_POINT('',(0.02975,0.02525,0.0095));
#776=CARTESIAN_POINT('',(0.02975,3.46944695195361E-18,0.0095));
#777=CARTESIAN_POINT('',(0.02975,-0.02525,0.0095));
#778=CARTESIAN_POINT('',(0.02975,-0.02525,0.));
#779=CARTESIAN_POINT('',(-1.7347234759768E-18,0.02825,0.0095));
#780=CARTESIAN_POINT('',(-1.7347234759768E-18,0.02825,0.0095));
#781=CARTESIAN_POINT('',(0.02675,0.02825,0.0095));
#782=CARTESIAN_POINT('',(-0.02675,0.02825,0.0095));
#783=CARTESIAN_POINT('',(0.02675,0.02825,0.0095));
#784=CARTESIAN_POINT('',(0.02675,0.02825,0.));
#785=CARTESIAN_POINT('',(-1.7347234759768E-18,0.02825,0.));
#786=CARTESIAN_POINT('',(-0.02675,0.02825,0.));
#787=CARTESIAN_POINT('',(-0.02675,0.02825,0.0095));
#788=CARTESIAN_POINT('',(-0.02975,-3.46944695195361E-18,0.0095));
#789=CARTESIAN_POINT('',(-0.02975,-3.46944695195361E-18,0.0095));
#790=CARTESIAN_POINT('',(-0.02975,-0.02525,0.0095));
#791=CARTESIAN_POINT('',(-0.02975,0.02525,0.0095));
#792=CARTESIAN_POINT('',(-0.02975,0.02525,0.));
#793=CARTESIAN_POINT('',(-0.02975,0.02525,0.));
#794=CARTESIAN_POINT('',(-0.02975,-3.46944695195361E-18,0.));
#795=CARTESIAN_POINT('',(-0.02975,-0.02525,0.));
#796=CARTESIAN_POINT('',(-0.02975,-0.02525,0.0095));
#797=CARTESIAN_POINT('',(-0.01175,-0.02825,0.0095));
#798=CARTESIAN_POINT('',(-0.01175,-0.02825,0.0095));
#799=CARTESIAN_POINT('',(-0.02675,-0.02825,0.0095));
#800=CARTESIAN_POINT('',(-0.02675,-0.02825,0.0095));
#801=CARTESIAN_POINT('',(-0.02675,-0.02825,0.));
#802=CARTESIAN_POINT('',(-0.01175,-0.02825,0.));
#803=CARTESIAN_POINT('',(0.02675,-0.02825,0.));
#804=CARTESIAN_POINT('',(0.02675,-0.02825,0.0095));
#805=CARTESIAN_POINT('',(0.02675,-0.02825,0.0095));
#806=CARTESIAN_POINT('',(0.0215,-0.02825,0.0095));
#807=CARTESIAN_POINT('',(0.,3.46944695195361E-18,0.0095));
#808=CARTESIAN_POINT('',(0.02725,0.02575,0.0095));
#809=CARTESIAN_POINT('',(0.0285,0.02575,0.0095));
#810=CARTESIAN_POINT('',(-0.02725,-0.02575,0.0095));
#811=CARTESIAN_POINT('',(-0.026,-0.02575,0.0095));
#812=CARTESIAN_POINT('',(0.02725,-0.02575,0.0095));
#813=CARTESIAN_POINT('',(0.0285,-0.02575,0.0095));
#814=CARTESIAN_POINT('',(-0.02725,0.02575,0.0095));
#815=CARTESIAN_POINT('',(-0.026,0.02575,0.0095));
#816=CARTESIAN_POINT('',(0.02675,0.02525,0.0095));
#817=CARTESIAN_POINT('',(-0.02675,0.02525,0.0095));
#818=CARTESIAN_POINT('',(-0.02675,-0.02525,0.0095));
#819=CARTESIAN_POINT('',(0.02675,-0.02525,0.0095));
#820=CARTESIAN_POINT('',(0.,3.46944695195361E-18,0.));
#821=CARTESIAN_POINT('',(0.02725,0.02575,0.));
#822=CARTESIAN_POINT('',(0.0285,0.02575,0.));
#823=CARTESIAN_POINT('',(-0.02725,-0.02575,0.));
#824=CARTESIAN_POINT('',(-0.026,-0.02575,0.));
#825=CARTESIAN_POINT('',(0.02725,-0.02575,0.));
#826=CARTESIAN_POINT('',(0.0285,-0.02575,0.));
#827=CARTESIAN_POINT('',(-0.02725,0.02575,0.));
#828=CARTESIAN_POINT('',(-0.026,0.02575,0.));
#829=CARTESIAN_POINT('',(0.02675,0.02525,0.));
#830=CARTESIAN_POINT('',(0.02675,-0.02525,0.));
#831=CARTESIAN_POINT('',(-0.02675,-0.02525,0.));
#832=CARTESIAN_POINT('',(-0.02675,0.02525,0.));
#833=CARTESIAN_POINT('',(-0.02185,-0.00025,0.002));
#834=CARTESIAN_POINT('',(-0.01935,-0.00025,0.002));
#835=CARTESIAN_POINT('',(-0.01935,-0.00025,0.002));
#836=CARTESIAN_POINT('',(-0.02185,-0.00025,0.002));
#837=CARTESIAN_POINT('',(-0.02435,-0.000250000000000004,0.002));
#838=CARTESIAN_POINT('',(-0.02435,-0.000250000000000004,0.002));
#839=CARTESIAN_POINT('',(-0.01935,0.00575,0.002));
#840=CARTESIAN_POINT('',(-0.01935,0.01175,0.002));
#841=CARTESIAN_POINT('',(-0.01935,0.01175,0.002));
#842=CARTESIAN_POINT('',(-0.01935,0.00575,0.002));
#843=CARTESIAN_POINT('',(-0.02185,0.01175,0.002));
#844=CARTESIAN_POINT('',(-0.02435,0.01175,0.002));
#845=CARTESIAN_POINT('',(-0.02435,0.01175,0.002));
#846=CARTESIAN_POINT('',(-0.02185,0.01175,0.002));
#847=CARTESIAN_POINT('',(-0.02435,0.00575,0.002));
#848=CARTESIAN_POINT('',(-0.02435,0.00575,0.002));
#849=CARTESIAN_POINT('',(0.,-0.00175,0.002));
#850=CARTESIAN_POINT('',(0.02675,0.02525,0.0095));
#851=CARTESIAN_POINT('',(-0.02675,0.02525,0.0095));
#852=CARTESIAN_POINT('',(-0.02675,-0.02525,0.0095));
#853=CARTESIAN_POINT('',(0.02675,-0.02525,0.0095));
#854=CARTESIAN_POINT('',(-0.02725,0.02575,0.));
#855=CARTESIAN_POINT('',(0.02725,-0.02575,0.));
#856=CARTESIAN_POINT('',(-0.02725,-0.02575,0.));
#857=CARTESIAN_POINT('',(0.02725,0.02575,0.));
#858=MECHANICAL_DESIGN_GEOMETRIC_PRESENTATION_REPRESENTATION('',(#519),#859);
#859=(
GEOMETRIC_REPRESENTATION_CONTEXT(3)
GLOBAL_UNCERTAINTY_ASSIGNED_CONTEXT((#860))
GLOBAL_UNIT_ASSIGNED_CONTEXT((#863,#862,#861))
REPRESENTATION_CONTEXT('Part 1','TOP_LEVEL_ASSEMBLY_PART')
);
#860=UNCERTAINTY_MEASURE_WITH_UNIT(LENGTH_MEASURE(1.E-08),#863,'DISTANCE_ACCURACY_VALUE','Maximum Tolerance applied to model');
#861=(
NAMED_UNIT(*)
SI_UNIT($,.STERADIAN.)
SOLID_ANGLE_UNIT()
);
#862=(
NAMED_UNIT(*)
PLANE_ANGLE_UNIT()
SI_UNIT($,.RADIAN.)
);
#863=(
LENGTH_UNIT()
NAMED_UNIT(*)
SI_UNIT($,.METRE.)
);
#864=PRODUCT_DEFINITION_SHAPE('','',#865);
#865=PRODUCT_DEFINITION('','',#867,#866);
#866=PRODUCT_DEFINITION_CONTEXT('',#873,'design');
#867=PRODUCT_DEFINITION_FORMATION_WITH_SPECIFIED_SOURCE('','',#869,.NOT_KNOWN.);
#868=PRODUCT_RELATED_PRODUCT_CATEGORY('','',(#869));
#869=PRODUCT('Part 1','Part 1','Part 1',(#871));
#870=PRODUCT_CATEGORY('','');
#871=PRODUCT_CONTEXT('',#873,'mechanical');
#872=APPLICATION_PROTOCOL_DEFINITION('international standard','ap242_managed_model_based_3d_engineering',2020,#873);
#873=APPLICATION_CONTEXT('managed model based 3d engineering');
ENDSEC;
END-ISO-10303-21;
